solid OpenSCAD_Model
  facet normal 0.0520773 -0.0991925 -0.993705
    outer loop
      vertex 80.0997 -55 0.192358
      vertex 80 -55 0.187133
      vertex 105 -40 0
    endloop
  endfacet
  facet normal 0.0520777 -0.0991918 -0.993705
    outer loop
      vertex 105 -40 0
      vertex 100 -42.6251 0
      vertex 100 -40.4061 -0.221501
    endloop
  endfacet
  facet normal 0.0520781 -0.0992022 -0.993704
    outer loop
      vertex 77 -55 0.0299093
      vertex 76.4293 -55 0
      vertex 77 -54.7004 0
    endloop
  endfacet
  facet normal 0.0520773 0.0991925 -0.993705
    outer loop
      vertex 105 40 0
      vertex 80 55 0.187133
      vertex 80.0997 55 0.192358
    endloop
  endfacet
  facet normal 0.0520777 0.0991918 -0.993705
    outer loop
      vertex 105 40 0
      vertex 100 40.4061 -0.221501
      vertex 100 42.6251 0
    endloop
  endfacet
  facet normal 0.0520781 0.0992022 -0.993704
    outer loop
      vertex 77 54.7004 0
      vertex 76.4293 55 0
      vertex 77 55 0.0299093
    endloop
  endfacet
  facet normal 0.516008 0.856584 -0
    outer loop
      vertex 105 40 0
      vertex 80.0997 55 0.192358
      vertex 105 40 3
    endloop
  endfacet
  facet normal -0.998633 0 -0.0522682
    outer loop
      vertex -80.1098 -55 0
      vertex -80.152 55 0.806271
      vertex -80.1098 55 0
    endloop
  endfacet
  facet normal -0.998633 -0 -0.0522682
    outer loop
      vertex -80.152 55 0.806271
      vertex -80.1098 -55 0
      vertex -80.152 -55 0.806271
    endloop
  endfacet
  facet normal 0 1 -0
    outer loop
      vertex 80 55 0
      vertex 77 55 0.0299093
      vertex 80 55 0.187133
    endloop
  endfacet
  facet normal 0 1 0
    outer loop
      vertex 77 55 0.0299093
      vertex 80 55 0
      vertex 77 55 0
    endloop
  endfacet
  facet normal 0 1 0
    outer loop
      vertex 80 55 20
      vertex 77 55 9.04226
      vertex 77 55 20
    endloop
  endfacet
  facet normal 0 1 -0
    outer loop
      vertex 80 55 2.09486
      vertex 77 55 9.04226
      vertex 80 55 20
    endloop
  endfacet
  facet normal 0 1 0
    outer loop
      vertex 76.4293 55 0
      vertex 77 55 9.04226
      vertex 80 55 2.09486
    endloop
  endfacet
  facet normal 0 1 0
    outer loop
      vertex 80 55 0.187133
      vertex 80 55 2.09486
      vertex 80.0997 55 0.192358
    endloop
  endfacet
  facet normal 0 1 0
    outer loop
      vertex 77 55 0.0299093
      vertex 80 55 2.09486
      vertex 80 55 0.187133
    endloop
  endfacet
  facet normal 0 1 0
    outer loop
      vertex 76.4293 55 0
      vertex 80 55 2.09486
      vertex 77 55 0.0299093
    endloop
  endfacet
  facet normal 0 1 0
    outer loop
      vertex 77 55 9.04226
      vertex 76.4293 55 0
      vertex -80.152 55 0.806271
    endloop
  endfacet
  facet normal 0 1 0
    outer loop
      vertex -80.152 55 0.806271
      vertex 76.4293 55 0
      vertex -80.1098 55 0
    endloop
  endfacet
  facet normal 0.516008 -0.856584 0
    outer loop
      vertex 105 -40 3
      vertex 80.0997 -55 0.192358
      vertex 105 -40 0
    endloop
  endfacet
  facet normal 0.513593 -0.857612 0.0269147
    outer loop
      vertex 105 -40 3
      vertex 80 -55 2.09486
      vertex 80.0997 -55 0.192358
    endloop
  endfacet
  facet normal 0 -1 0
    outer loop
      vertex 77 -55 9.04226
      vertex 80 -55 20
      vertex 77 -55 20
    endloop
  endfacet
  facet normal 0 -1 0
    outer loop
      vertex 77 -55 9.04226
      vertex 80 -55 2.09486
      vertex 80 -55 20
    endloop
  endfacet
  facet normal 0 -1 0
    outer loop
      vertex 76.4293 -55 0
      vertex 77 -55 9.04226
      vertex -80.152 -55 0.806271
    endloop
  endfacet
  facet normal 0 -1 -0
    outer loop
      vertex 77 -55 9.04226
      vertex 76.4293 -55 0
      vertex 80 -55 2.09486
    endloop
  endfacet
  facet normal 0 -1 0
    outer loop
      vertex 80 -55 2.09486
      vertex 80 -55 0.187133
      vertex 80.0997 -55 0.192358
    endloop
  endfacet
  facet normal 0 -1 -0
    outer loop
      vertex 80 -55 2.09486
      vertex 77 -55 0.0299093
      vertex 80 -55 0.187133
    endloop
  endfacet
  facet normal 0 -1 0
    outer loop
      vertex 76.4293 -55 0
      vertex -80.152 -55 0.806271
      vertex -80.1098 -55 0
    endloop
  endfacet
  facet normal 0 -1 0
    outer loop
      vertex 80 -55 2.09486
      vertex 76.4293 -55 0
      vertex 77 -55 0.0299093
    endloop
  endfacet
  facet normal 0 -1 0
    outer loop
      vertex 80 -55 0
      vertex 77 -55 0.0299093
      vertex 77 -55 0
    endloop
  endfacet
  facet normal 0 -1 0
    outer loop
      vertex 77 -55 0.0299093
      vertex 80 -55 0
      vertex 80 -55 0.187133
    endloop
  endfacet
  facet normal -0.0523404 8.15861e-06 0.998629
    outer loop
      vertex 67.5 -40 8.54439
      vertex 51.4882 -47.812 7.70524
      vertex 51.5 -48 7.70586
    endloop
  endfacet
  facet normal -0.0523364 -5.08884e-08 0.99863
    outer loop
      vertex 67.5 -40 8.54439
      vertex 51.4529 -47.627 7.70339
      vertex 51.4882 -47.812 7.70524
    endloop
  endfacet
  facet normal -0.052336 -7.65624e-07 0.99863
    outer loop
      vertex 67.5 -40 8.54439
      vertex 51.3947 -47.4478 7.70034
      vertex 51.4529 -47.627 7.70339
    endloop
  endfacet
  facet normal -0.0523294 -1.51065e-05 0.99863
    outer loop
      vertex 67.5 -40 8.54439
      vertex 51.3145 -47.2774 7.69614
      vertex 51.3947 -47.4478 7.70034
    endloop
  endfacet
  facet normal -0.0523292 -1.56743e-05 0.99863
    outer loop
      vertex 67.5 -40 8.54439
      vertex 51.2135 -47.1183 7.69085
      vertex 51.3145 -47.2774 7.69614
    endloop
  endfacet
  facet normal -0.0523383 5.36504e-06 0.998629
    outer loop
      vertex 67.5 -40 8.54439
      vertex 51.0935 -46.9732 7.68456
      vertex 51.2135 -47.1183 7.69085
    endloop
  endfacet
  facet normal -0.0523342 -4.49594e-06 0.99863
    outer loop
      vertex 67.5 -40 8.54439
      vertex 50.9561 -46.8442 7.67736
      vertex 51.0935 -46.9732 7.68456
    endloop
  endfacet
  facet normal -0.0523432 1.75058e-05 0.998629
    outer loop
      vertex 67.5 -40 8.54439
      vertex 50.8037 -46.7335 7.66937
      vertex 50.9561 -46.8442 7.67736
    endloop
  endfacet
  facet normal -0.052343 1.70009e-05 0.998629
    outer loop
      vertex 67.5 -40 8.54439
      vertex 50.6387 -46.6428 7.66072
      vertex 50.8037 -46.7335 7.66937
    endloop
  endfacet
  facet normal -0.0523309 -1.37986e-05 0.99863
    outer loop
      vertex 67.5 -40 8.54439
      vertex 50.4635 -46.5734 7.65154
      vertex 50.6387 -46.6428 7.66072
    endloop
  endfacet
  facet normal -0.0523388 6.55316e-06 0.998629
    outer loop
      vertex 67.5 -40 8.54439
      vertex 50.2811 -46.5266 7.64198
      vertex 50.4635 -46.5734 7.65154
    endloop
  endfacet
  facet normal -0.052316 -5.36705e-05 0.998631
    outer loop
      vertex 67.5 -40 8.54439
      vertex 50.0942 -46.503 7.63219
      vertex 50.2811 -46.5266 7.64198
    endloop
  endfacet
  facet normal -0.0523697 9.03322e-05 0.998628
    outer loop
      vertex 67.5 -40 8.54439
      vertex 49.9058 -46.503 7.62231
      vertex 50.0942 -46.503 7.63219
    endloop
  endfacet
  facet normal -0.0522952 -0.000111738 0.998632
    outer loop
      vertex 67.5 -40 8.54439
      vertex 49.7189 -46.5266 7.61252
      vertex 49.9058 -46.503 7.62231
    endloop
  endfacet
  facet normal -0.0523506 3.96557e-05 0.998629
    outer loop
      vertex 67.5 -40 8.54439
      vertex 49.5365 -46.5734 7.60296
      vertex 49.7189 -46.5266 7.61252
    endloop
  endfacet
  facet normal -0.052336 -8.43568e-06 0.99863
    outer loop
      vertex 48.5118 -47.812 7.54926
      vertex -46.5 -48 2.5699
      vertex 48.5 -48 7.54864
    endloop
  endfacet
  facet normal -0.052336 -2.39846e-08 0.99863
    outer loop
      vertex 48.5471 -47.627 7.55111
      vertex -46.5 -48 2.5699
      vertex 48.5118 -47.812 7.54926
    endloop
  endfacet
  facet normal -0.052336 7.49498e-07 0.99863
    outer loop
      vertex 48.6053 -47.4478 7.55416
      vertex -46.5 -48 2.5699
      vertex 48.5471 -47.627 7.55111
    endloop
  endfacet
  facet normal -0.0523361 1.82523e-05 0.99863
    outer loop
      vertex 48.6855 -47.2774 7.55836
      vertex -46.5 -48 2.5699
      vertex 48.6053 -47.4478 7.55416
    endloop
  endfacet
  facet normal -0.0523354 1.96704e-05 0.99863
    outer loop
      vertex -48.25 -44.9689 2.47819
      vertex 48.6855 -47.2774 7.55836
      vertex 48.7865 -47.1183 7.56365
    endloop
  endfacet
  facet normal -0.0523375 -7.48558e-05 0.998629
    outer loop
      vertex -48.25 -44.9689 2.47819
      vertex 48.7865 -47.1183 7.56365
      vertex 48.9065 -46.9732 7.56995
    endloop
  endfacet
  facet normal -0.0523307 7.82118e-05 0.99863
    outer loop
      vertex -52.5 -40 2.25545
      vertex 48.9065 -46.9732 7.56995
      vertex 49.0439 -46.8442 7.57714
    endloop
  endfacet
  facet normal -0.0523376 -2.52182e-05 0.998629
    outer loop
      vertex -52.5 -40 2.25545
      vertex 49.0439 -46.8442 7.57714
      vertex 49.1963 -46.7335 7.58513
    endloop
  endfacet
  facet normal -0.0523377 -2.66493e-05 0.998629
    outer loop
      vertex -52.5 -40 2.25545
      vertex 49.1963 -46.7335 7.58513
      vertex 49.3613 -46.6428 7.59378
    endloop
  endfacet
  facet normal -0.0523345 2.28864e-05 0.99863
    outer loop
      vertex -52.5 -40 2.25545
      vertex 49.3613 -46.6428 7.59378
      vertex 49.5365 -46.5734 7.60296
    endloop
  endfacet
  facet normal -0.052336 -2.86508e-07 0.99863
    outer loop
      vertex -52.5 -40 2.25545
      vertex 49.5365 -46.5734 7.60296
      vertex 67.5 -40 8.54439
    endloop
  endfacet
  facet normal -0.0523359 -1.18132e-06 0.99863
    outer loop
      vertex 48.6855 -47.2774 7.55836
      vertex -48.25 -44.9689 2.47819
      vertex -46.5 -48 2.5699
    endloop
  endfacet
  facet normal -0.052336 1.38728e-06 0.99863
    outer loop
      vertex 48.9065 -46.9732 7.56995
      vertex -52.5 -40 2.25545
      vertex -48.25 -44.9689 2.47819
    endloop
  endfacet
  facet normal -0.0523367 7.17771e-07 0.998629
    outer loop
      vertex -48.25 -44.9689 2.47819
      vertex -52.5 -40 2.25545
      vertex -51.75 -44.9689 2.29476
    endloop
  endfacet
  facet normal -0.0523355 9.10419e-07 0.99863
    outer loop
      vertex -52.5 -40 2.25545
      vertex -53.5 -48 2.20305
      vertex -51.75 -44.9689 2.29476
    endloop
  endfacet
  facet normal -0.0523359 0 0.99863
    outer loop
      vertex -52.5 40 2.25545
      vertex -80.152 55 0.806271
      vertex -52.5 -40 2.25545
    endloop
  endfacet
  facet normal -0.0523355 0 0.99863
    outer loop
      vertex 77 55 9.04226
      vertex 67.5 40 8.54439
      vertex 77 -55 9.04226
    endloop
  endfacet
  facet normal -0.0523362 3.99943e-07 0.99863
    outer loop
      vertex 51.3947 48.5522 7.70034
      vertex 67.5 40 8.54439
      vertex 77 55 9.04226
    endloop
  endfacet
  facet normal -0.052332 8.68728e-06 0.99863
    outer loop
      vertex 67.5 40 8.54439
      vertex 51.4882 48.188 7.70524
      vertex 51.5 48 7.70586
    endloop
  endfacet
  facet normal -0.0523364 -6.16404e-08 0.99863
    outer loop
      vertex 67.5 40 8.54439
      vertex 51.4529 48.373 7.70339
      vertex 51.4882 48.188 7.70524
    endloop
  endfacet
  facet normal -0.052337 -1.06414e-06 0.998629
    outer loop
      vertex 67.5 40 8.54439
      vertex 51.3947 48.5522 7.70034
      vertex 51.4529 48.373 7.70339
    endloop
  endfacet
  facet normal -0.052332 -1.63136e-05 0.99863
    outer loop
      vertex 77 55 9.04226
      vertex 51.3145 48.7226 7.69614
      vertex 51.3947 48.5522 7.70034
    endloop
  endfacet
  facet normal -0.0523317 -1.73099e-05 0.99863
    outer loop
      vertex 77 55 9.04226
      vertex 51.2135 48.8817 7.69085
      vertex 51.3145 48.7226 7.69614
    endloop
  endfacet
  facet normal -0.0523373 6.22161e-06 0.998629
    outer loop
      vertex 77 55 9.04226
      vertex 51.0935 49.0268 7.68456
      vertex 51.2135 48.8817 7.69085
    endloop
  endfacet
  facet normal -0.0523347 -5.08112e-06 0.99863
    outer loop
      vertex 77 55 9.04226
      vertex 50.9561 49.1558 7.67736
      vertex 51.0935 49.0268 7.68456
    endloop
  endfacet
  facet normal -0.0523406 2.11705e-05 0.998629
    outer loop
      vertex 77 55 9.04226
      vertex 50.8037 49.2665 7.66937
      vertex 50.9561 49.1558 7.67736
    endloop
  endfacet
  facet normal -0.0523406 2.13868e-05 0.998629
    outer loop
      vertex 77 55 9.04226
      vertex 50.6387 49.3572 7.66072
      vertex 50.8037 49.2665 7.66937
    endloop
  endfacet
  facet normal -0.0523324 -1.739e-05 0.99863
    outer loop
      vertex 77 55 9.04226
      vertex 50.4635 49.4266 7.65154
      vertex 50.6387 49.3572 7.66072
    endloop
  endfacet
  facet normal -0.052338 9.55608e-06 0.998629
    outer loop
      vertex 77 55 9.04226
      vertex 50.2811 49.4734 7.64198
      vertex 50.4635 49.4266 7.65154
    endloop
  endfacet
  facet normal -0.0523194 -8.0624e-05 0.99863
    outer loop
      vertex 77 55 9.04226
      vertex 50.0942 49.497 7.63219
      vertex 50.2811 49.4734 7.64198
    endloop
  endfacet
  facet normal -0.0523697 0.000165785 0.998628
    outer loop
      vertex 77 55 9.04226
      vertex 49.9058 49.497 7.62231
      vertex 50.0942 49.497 7.63219
    endloop
  endfacet
  facet normal -0.0522651 -0.00035018 0.998633
    outer loop
      vertex 77 55 9.04226
      vertex 49.7189 49.4734 7.61252
      vertex 49.9058 49.497 7.62231
    endloop
  endfacet
  facet normal -0.052336 -8.43568e-06 0.99863
    outer loop
      vertex 48.5118 48.188 7.54926
      vertex -46.5 48 2.5699
      vertex 48.5 48 7.54864
    endloop
  endfacet
  facet normal -0.052336 -2.39846e-08 0.99863
    outer loop
      vertex 48.5471 48.373 7.55111
      vertex -46.5 48 2.5699
      vertex 48.5118 48.188 7.54926
    endloop
  endfacet
  facet normal -0.052336 7.49498e-07 0.99863
    outer loop
      vertex 48.6053 48.5522 7.55416
      vertex -46.5 48 2.5699
      vertex 48.5471 48.373 7.55111
    endloop
  endfacet
  facet normal -0.0523361 1.82523e-05 0.99863
    outer loop
      vertex 48.6855 48.7226 7.55836
      vertex -46.5 48 2.5699
      vertex 48.6053 48.5522 7.55416
    endloop
  endfacet
  facet normal -0.0523354 1.96704e-05 0.99863
    outer loop
      vertex -48.25 51.0311 2.47819
      vertex 48.6855 48.7226 7.55836
      vertex 48.7865 48.8817 7.56365
    endloop
  endfacet
  facet normal -0.0523375 -7.48558e-05 0.998629
    outer loop
      vertex -48.25 51.0311 2.47819
      vertex 48.7865 48.8817 7.56365
      vertex 48.9065 49.0268 7.56995
    endloop
  endfacet
  facet normal -0.0523343 8.20658e-05 0.99863
    outer loop
      vertex -48.25 51.0311 2.47819
      vertex 48.9065 49.0268 7.56995
      vertex 49.0439 49.1558 7.57714
    endloop
  endfacet
  facet normal -0.0523364 -2.69416e-05 0.99863
    outer loop
      vertex -48.25 51.0311 2.47819
      vertex 49.0439 49.1558 7.57714
      vertex 49.1963 49.2665 7.58513
    endloop
  endfacet
  facet normal -0.0523364 -2.90301e-05 0.99863
    outer loop
      vertex -48.25 51.0311 2.47819
      vertex 49.1963 49.2665 7.58513
      vertex 49.3613 49.3572 7.59378
    endloop
  endfacet
  facet normal -0.0523355 2.53821e-05 0.99863
    outer loop
      vertex -48.25 51.0311 2.47819
      vertex 49.3613 49.3572 7.59378
      vertex 49.5365 49.4266 7.60296
    endloop
  endfacet
  facet normal -0.0523362 -1.65907e-05 0.99863
    outer loop
      vertex -48.25 51.0311 2.47819
      vertex 49.5365 49.4266 7.60296
      vertex 49.7189 49.4734 7.61252
    endloop
  endfacet
  facet normal -0.0523359 1.96803e-07 0.99863
    outer loop
      vertex -48.25 51.0311 2.47819
      vertex 49.7189 49.4734 7.61252
      vertex 77 55 9.04226
    endloop
  endfacet
  facet normal -0.0523359 -1.18132e-06 0.99863
    outer loop
      vertex 48.6855 48.7226 7.55836
      vertex -48.25 51.0311 2.47819
      vertex -46.5 48 2.5699
    endloop
  endfacet
  facet normal -0.052336 1.43075e-06 0.99863
    outer loop
      vertex -80.152 55 0.806271
      vertex -48.25 51.0311 2.47819
      vertex 77 55 9.04226
    endloop
  endfacet
  facet normal -0.0523359 0 0.99863
    outer loop
      vertex -80.152 -55 0.806271
      vertex -52.5 -40 2.25545
      vertex -80.152 55 0.806271
    endloop
  endfacet
  facet normal -0.0523359 1.16281e-06 0.99863
    outer loop
      vertex -51.75 51.0311 2.29476
      vertex -80.152 55 0.806271
      vertex -53.5 48 2.20305
    endloop
  endfacet
  facet normal -0.0523367 -4.84248e-06 0.998629
    outer loop
      vertex -48.25 51.0311 2.47819
      vertex -80.152 55 0.806271
      vertex -51.75 51.0311 2.29476
    endloop
  endfacet
  facet normal -0.0523355 0 0.99863
    outer loop
      vertex 67.5 -40 8.54439
      vertex 77 -55 9.04226
      vertex 67.5 40 8.54439
    endloop
  endfacet
  facet normal -0.052332 -8.68728e-06 0.99863
    outer loop
      vertex 51.4882 -48.188 7.70524
      vertex 67.5 -40 8.54439
      vertex 51.5 -48 7.70586
    endloop
  endfacet
  facet normal -0.0523364 6.16404e-08 0.99863
    outer loop
      vertex 51.4529 -48.373 7.70339
      vertex 67.5 -40 8.54439
      vertex 51.4882 -48.188 7.70524
    endloop
  endfacet
  facet normal -0.052337 1.06414e-06 0.998629
    outer loop
      vertex 51.3947 -48.5522 7.70034
      vertex 67.5 -40 8.54439
      vertex 51.4529 -48.373 7.70339
    endloop
  endfacet
  facet normal -0.0523362 -3.99943e-07 0.99863
    outer loop
      vertex 67.5 -40 8.54439
      vertex 51.3947 -48.5522 7.70034
      vertex 77 -55 9.04226
    endloop
  endfacet
  facet normal -0.052332 1.63136e-05 0.99863
    outer loop
      vertex 51.3145 -48.7226 7.69614
      vertex 77 -55 9.04226
      vertex 51.3947 -48.5522 7.70034
    endloop
  endfacet
  facet normal -0.0523317 1.73099e-05 0.99863
    outer loop
      vertex 51.2135 -48.8817 7.69085
      vertex 77 -55 9.04226
      vertex 51.3145 -48.7226 7.69614
    endloop
  endfacet
  facet normal -0.0523373 -6.22161e-06 0.998629
    outer loop
      vertex 51.0935 -49.0268 7.68456
      vertex 77 -55 9.04226
      vertex 51.2135 -48.8817 7.69085
    endloop
  endfacet
  facet normal -0.0523347 5.08112e-06 0.99863
    outer loop
      vertex 50.9561 -49.1558 7.67736
      vertex 77 -55 9.04226
      vertex 51.0935 -49.0268 7.68456
    endloop
  endfacet
  facet normal -0.0523406 -2.11705e-05 0.998629
    outer loop
      vertex 50.8037 -49.2665 7.66937
      vertex 77 -55 9.04226
      vertex 50.9561 -49.1558 7.67736
    endloop
  endfacet
  facet normal -0.0523406 -2.13868e-05 0.998629
    outer loop
      vertex 50.6387 -49.3572 7.66072
      vertex 77 -55 9.04226
      vertex 50.8037 -49.2665 7.66937
    endloop
  endfacet
  facet normal -0.0523324 1.739e-05 0.99863
    outer loop
      vertex 50.4635 -49.4266 7.65154
      vertex 77 -55 9.04226
      vertex 50.6387 -49.3572 7.66072
    endloop
  endfacet
  facet normal -0.052338 -9.55608e-06 0.998629
    outer loop
      vertex 50.2811 -49.4734 7.64198
      vertex 77 -55 9.04226
      vertex 50.4635 -49.4266 7.65154
    endloop
  endfacet
  facet normal -0.0523194 8.0624e-05 0.99863
    outer loop
      vertex 50.0942 -49.497 7.63219
      vertex 77 -55 9.04226
      vertex 50.2811 -49.4734 7.64198
    endloop
  endfacet
  facet normal -0.0523697 -0.000165785 0.998628
    outer loop
      vertex 49.9058 -49.497 7.62231
      vertex 77 -55 9.04226
      vertex 50.0942 -49.497 7.63219
    endloop
  endfacet
  facet normal -0.0522651 0.00035018 0.998633
    outer loop
      vertex 49.7189 -49.4734 7.61252
      vertex 77 -55 9.04226
      vertex 49.9058 -49.497 7.62231
    endloop
  endfacet
  facet normal -0.052336 8.43568e-06 0.99863
    outer loop
      vertex -46.5 -48 2.5699
      vertex 48.5118 -48.188 7.54926
      vertex 48.5 -48 7.54864
    endloop
  endfacet
  facet normal -0.052336 2.39846e-08 0.99863
    outer loop
      vertex -46.5 -48 2.5699
      vertex 48.5471 -48.373 7.55111
      vertex 48.5118 -48.188 7.54926
    endloop
  endfacet
  facet normal -0.052336 -7.49498e-07 0.99863
    outer loop
      vertex -46.5 -48 2.5699
      vertex 48.6053 -48.5522 7.55416
      vertex 48.5471 -48.373 7.55111
    endloop
  endfacet
  facet normal -0.0523361 -1.82523e-05 0.99863
    outer loop
      vertex -46.5 -48 2.5699
      vertex 48.6855 -48.7226 7.55836
      vertex 48.6053 -48.5522 7.55416
    endloop
  endfacet
  facet normal -0.0523359 1.18132e-06 0.99863
    outer loop
      vertex -48.25 -51.0311 2.47819
      vertex 48.6855 -48.7226 7.55836
      vertex -46.5 -48 2.5699
    endloop
  endfacet
  facet normal -0.0523354 -1.96704e-05 0.99863
    outer loop
      vertex 48.6855 -48.7226 7.55836
      vertex -48.25 -51.0311 2.47819
      vertex 48.7865 -48.8817 7.56365
    endloop
  endfacet
  facet normal -0.0523375 7.48558e-05 0.998629
    outer loop
      vertex 48.7865 -48.8817 7.56365
      vertex -48.25 -51.0311 2.47819
      vertex 48.9065 -49.0268 7.56995
    endloop
  endfacet
  facet normal -0.0523343 -8.20658e-05 0.99863
    outer loop
      vertex 48.9065 -49.0268 7.56995
      vertex -48.25 -51.0311 2.47819
      vertex 49.0439 -49.1558 7.57714
    endloop
  endfacet
  facet normal -0.0523364 2.69416e-05 0.99863
    outer loop
      vertex 49.0439 -49.1558 7.57714
      vertex -48.25 -51.0311 2.47819
      vertex 49.1963 -49.2665 7.58513
    endloop
  endfacet
  facet normal -0.0523364 2.90301e-05 0.99863
    outer loop
      vertex 49.1963 -49.2665 7.58513
      vertex -48.25 -51.0311 2.47819
      vertex 49.3613 -49.3572 7.59378
    endloop
  endfacet
  facet normal -0.0523355 -2.53821e-05 0.99863
    outer loop
      vertex 49.3613 -49.3572 7.59378
      vertex -48.25 -51.0311 2.47819
      vertex 49.5365 -49.4266 7.60296
    endloop
  endfacet
  facet normal -0.0523362 1.65907e-05 0.99863
    outer loop
      vertex 49.5365 -49.4266 7.60296
      vertex -48.25 -51.0311 2.47819
      vertex 49.7189 -49.4734 7.61252
    endloop
  endfacet
  facet normal -0.0523359 -1.96803e-07 0.99863
    outer loop
      vertex 49.7189 -49.4734 7.61252
      vertex -48.25 -51.0311 2.47819
      vertex 77 -55 9.04226
    endloop
  endfacet
  facet normal -0.0523367 4.84248e-06 0.998629
    outer loop
      vertex -80.152 -55 0.806271
      vertex -48.25 -51.0311 2.47819
      vertex -51.75 -51.0311 2.29476
    endloop
  endfacet
  facet normal -0.052336 -1.43075e-06 0.99863
    outer loop
      vertex -48.25 -51.0311 2.47819
      vertex -80.152 -55 0.806271
      vertex 77 -55 9.04226
    endloop
  endfacet
  facet normal -0.0523359 -1.16281e-06 0.99863
    outer loop
      vertex -53.5 -48 2.20305
      vertex -80.152 -55 0.806271
      vertex -51.75 -51.0311 2.29476
    endloop
  endfacet
  facet normal -0.0523365 1.03729e-06 0.99863
    outer loop
      vertex -52.5 -40 2.25545
      vertex -80.152 -55 0.806271
      vertex -53.5 -48 2.20305
    endloop
  endfacet
  facet normal -0.0523404 -8.15861e-06 0.998629
    outer loop
      vertex 51.4882 47.812 7.70524
      vertex 67.5 40 8.54439
      vertex 51.5 48 7.70586
    endloop
  endfacet
  facet normal -0.0523364 5.08884e-08 0.99863
    outer loop
      vertex 51.4529 47.627 7.70339
      vertex 67.5 40 8.54439
      vertex 51.4882 47.812 7.70524
    endloop
  endfacet
  facet normal -0.052336 7.65624e-07 0.99863
    outer loop
      vertex 51.3947 47.4478 7.70034
      vertex 67.5 40 8.54439
      vertex 51.4529 47.627 7.70339
    endloop
  endfacet
  facet normal -0.0523294 1.51065e-05 0.99863
    outer loop
      vertex 51.3145 47.2774 7.69614
      vertex 67.5 40 8.54439
      vertex 51.3947 47.4478 7.70034
    endloop
  endfacet
  facet normal -0.0523292 1.56743e-05 0.99863
    outer loop
      vertex 51.2135 47.1183 7.69085
      vertex 67.5 40 8.54439
      vertex 51.3145 47.2774 7.69614
    endloop
  endfacet
  facet normal -0.0523383 -5.36504e-06 0.998629
    outer loop
      vertex 51.0935 46.9732 7.68456
      vertex 67.5 40 8.54439
      vertex 51.2135 47.1183 7.69085
    endloop
  endfacet
  facet normal -0.0523342 4.49594e-06 0.99863
    outer loop
      vertex 50.9561 46.8442 7.67736
      vertex 67.5 40 8.54439
      vertex 51.0935 46.9732 7.68456
    endloop
  endfacet
  facet normal -0.0523432 -1.75058e-05 0.998629
    outer loop
      vertex 50.8037 46.7335 7.66937
      vertex 67.5 40 8.54439
      vertex 50.9561 46.8442 7.67736
    endloop
  endfacet
  facet normal -0.052343 -1.70009e-05 0.998629
    outer loop
      vertex 50.6387 46.6428 7.66072
      vertex 67.5 40 8.54439
      vertex 50.8037 46.7335 7.66937
    endloop
  endfacet
  facet normal -0.0523309 1.37986e-05 0.99863
    outer loop
      vertex 50.4635 46.5734 7.65154
      vertex 67.5 40 8.54439
      vertex 50.6387 46.6428 7.66072
    endloop
  endfacet
  facet normal -0.0523388 -6.55316e-06 0.998629
    outer loop
      vertex 50.2811 46.5266 7.64198
      vertex 67.5 40 8.54439
      vertex 50.4635 46.5734 7.65154
    endloop
  endfacet
  facet normal -0.052316 5.36705e-05 0.998631
    outer loop
      vertex 50.0942 46.503 7.63219
      vertex 67.5 40 8.54439
      vertex 50.2811 46.5266 7.64198
    endloop
  endfacet
  facet normal -0.0523697 -9.03322e-05 0.998628
    outer loop
      vertex 49.9058 46.503 7.62231
      vertex 67.5 40 8.54439
      vertex 50.0942 46.503 7.63219
    endloop
  endfacet
  facet normal -0.0522952 0.000111738 0.998632
    outer loop
      vertex 49.7189 46.5266 7.61252
      vertex 67.5 40 8.54439
      vertex 49.9058 46.503 7.62231
    endloop
  endfacet
  facet normal -0.0523506 -3.96557e-05 0.998629
    outer loop
      vertex 49.5365 46.5734 7.60296
      vertex 67.5 40 8.54439
      vertex 49.7189 46.5266 7.61252
    endloop
  endfacet
  facet normal -0.052336 8.43568e-06 0.99863
    outer loop
      vertex -46.5 48 2.5699
      vertex 48.5118 47.812 7.54926
      vertex 48.5 48 7.54864
    endloop
  endfacet
  facet normal -0.052336 2.39846e-08 0.99863
    outer loop
      vertex -46.5 48 2.5699
      vertex 48.5471 47.627 7.55111
      vertex 48.5118 47.812 7.54926
    endloop
  endfacet
  facet normal -0.052336 -7.49498e-07 0.99863
    outer loop
      vertex -46.5 48 2.5699
      vertex 48.6053 47.4478 7.55416
      vertex 48.5471 47.627 7.55111
    endloop
  endfacet
  facet normal -0.0523361 -1.82523e-05 0.99863
    outer loop
      vertex -46.5 48 2.5699
      vertex 48.6855 47.2774 7.55836
      vertex 48.6053 47.4478 7.55416
    endloop
  endfacet
  facet normal -0.0523359 1.18132e-06 0.99863
    outer loop
      vertex -48.25 44.9689 2.47819
      vertex 48.6855 47.2774 7.55836
      vertex -46.5 48 2.5699
    endloop
  endfacet
  facet normal -0.0523354 -1.96704e-05 0.99863
    outer loop
      vertex 48.6855 47.2774 7.55836
      vertex -48.25 44.9689 2.47819
      vertex 48.7865 47.1183 7.56365
    endloop
  endfacet
  facet normal -0.0523375 7.48558e-05 0.998629
    outer loop
      vertex 48.7865 47.1183 7.56365
      vertex -48.25 44.9689 2.47819
      vertex 48.9065 46.9732 7.56995
    endloop
  endfacet
  facet normal -0.052336 -1.38728e-06 0.99863
    outer loop
      vertex -52.5 40 2.25545
      vertex 48.9065 46.9732 7.56995
      vertex -48.25 44.9689 2.47819
    endloop
  endfacet
  facet normal -0.0523307 -7.82118e-05 0.99863
    outer loop
      vertex 48.9065 46.9732 7.56995
      vertex -52.5 40 2.25545
      vertex 49.0439 46.8442 7.57714
    endloop
  endfacet
  facet normal -0.0523376 2.52182e-05 0.998629
    outer loop
      vertex 49.0439 46.8442 7.57714
      vertex -52.5 40 2.25545
      vertex 49.1963 46.7335 7.58513
    endloop
  endfacet
  facet normal -0.0523377 2.66493e-05 0.998629
    outer loop
      vertex 49.1963 46.7335 7.58513
      vertex -52.5 40 2.25545
      vertex 49.3613 46.6428 7.59378
    endloop
  endfacet
  facet normal -0.0523345 -2.28864e-05 0.99863
    outer loop
      vertex 49.3613 46.6428 7.59378
      vertex -52.5 40 2.25545
      vertex 49.5365 46.5734 7.60296
    endloop
  endfacet
  facet normal -0.0523367 -7.17771e-07 0.998629
    outer loop
      vertex -52.5 40 2.25545
      vertex -48.25 44.9689 2.47819
      vertex -51.75 44.9689 2.29476
    endloop
  endfacet
  facet normal -0.052336 2.86508e-07 0.99863
    outer loop
      vertex 49.5365 46.5734 7.60296
      vertex -52.5 40 2.25545
      vertex 67.5 40 8.54439
    endloop
  endfacet
  facet normal -0.0523365 -1.03729e-06 0.99863
    outer loop
      vertex -80.152 55 0.806271
      vertex -52.5 40 2.25545
      vertex -53.5 48 2.20305
    endloop
  endfacet
  facet normal -0.0523355 -9.10419e-07 0.99863
    outer loop
      vertex -53.5 48 2.20305
      vertex -52.5 40 2.25545
      vertex -51.75 44.9689 2.29476
    endloop
  endfacet
  facet normal 0.0442568 0 -0.99902
    outer loop
      vertex 100 -40.4061 -0.221501
      vertex 105 40 0
      vertex 105 -40 0
    endloop
  endfacet
  facet normal 0.0442568 0 -0.99902
    outer loop
      vertex 105 40 0
      vertex 100 -40.4061 -0.221501
      vertex 100 40.4061 -0.221501
    endloop
  endfacet
  facet normal 0.513593 0.857612 0.0269147
    outer loop
      vertex 80.0997 55 0.192358
      vertex 80 55 2.09486
      vertex 105 40 3
    endloop
  endfacet
  facet normal 1 0 0
    outer loop
      vertex 105 -40 3
      vertex 105 40 3
      vertex 105 40 5
    endloop
  endfacet
  facet normal 1 0 0
    outer loop
      vertex 105 -40 3
      vertex 105 40 5
      vertex 105 -40 5
    endloop
  endfacet
  facet normal 1 0 0
    outer loop
      vertex 105 40 3
      vertex 105 -40 3
      vertex 105 40 0
    endloop
  endfacet
  facet normal 1 0 0
    outer loop
      vertex 105 40 0
      vertex 105 -40 3
      vertex 105 -40 0
    endloop
  endfacet
  facet normal -1 0 0
    outer loop
      vertex 100 -40.4061 -0.221501
      vertex 100 42.6251 0
      vertex 100 40.4061 -0.221501
    endloop
  endfacet
  facet normal -1 -0 0
    outer loop
      vertex 100 42.6251 0
      vertex 100 -40.4061 -0.221501
      vertex 100 -42.6251 0
    endloop
  endfacet
  facet normal 0 0 -1
    outer loop
      vertex 77 -54.7004 0
      vertex 100 -42.6251 0
      vertex 80 -55 0
    endloop
  endfacet
  facet normal 0 0 -1
    outer loop
      vertex 80 -55 0
      vertex 100 -42.6251 0
      vertex 105 -40 0
    endloop
  endfacet
  facet normal 0 0 -1
    outer loop
      vertex 100 42.6251 0
      vertex 80 55 0
      vertex 105 40 0
    endloop
  endfacet
  facet normal -0 0 -1
    outer loop
      vertex 100 -42.6251 0
      vertex 77 -54.7004 0
      vertex 100 42.6251 0
    endloop
  endfacet
  facet normal 0 0 -1
    outer loop
      vertex 77 -54.7004 0
      vertex 80 -55 0
      vertex 77 -55 0
    endloop
  endfacet
  facet normal 0 0 -1
    outer loop
      vertex 77 54.7004 0
      vertex 100 42.6251 0
      vertex 77 -54.7004 0
    endloop
  endfacet
  facet normal 0 0 -1
    outer loop
      vertex 100 42.6251 0
      vertex 77 54.7004 0
      vertex 80 55 0
    endloop
  endfacet
  facet normal -0 0 -1
    outer loop
      vertex 80 55 0
      vertex 77 54.7004 0
      vertex 77 55 0
    endloop
  endfacet
  facet normal 0 0 -1
    outer loop
      vertex 67.5 40 0
      vertex 51.75 44.9689 0
      vertex 53.5 48 0
    endloop
  endfacet
  facet normal 0 0 -1
    outer loop
      vertex 67.5 40 0
      vertex 48.25 44.9689 0
      vertex 51.75 44.9689 0
    endloop
  endfacet
  facet normal 0 0 -1
    outer loop
      vertex 48.25 44.9689 0
      vertex -46.5 48 0
      vertex 46.5 48 0
    endloop
  endfacet
  facet normal 0 0 -1
    outer loop
      vertex -52.5 40 0
      vertex 48.25 44.9689 0
      vertex 67.5 40 0
    endloop
  endfacet
  facet normal 0 0 -1
    outer loop
      vertex 48.25 44.9689 0
      vertex -48.25 44.9689 0
      vertex -46.5 48 0
    endloop
  endfacet
  facet normal -0 0 -1
    outer loop
      vertex 48.25 44.9689 0
      vertex -52.5 40 0
      vertex -48.25 44.9689 0
    endloop
  endfacet
  facet normal -0 0 -1
    outer loop
      vertex -48.25 44.9689 0
      vertex -52.5 40 0
      vertex -51.75 44.9689 0
    endloop
  endfacet
  facet normal 0 0 -1
    outer loop
      vertex -52.5 40 0
      vertex -53.5 48 0
      vertex -51.75 44.9689 0
    endloop
  endfacet
  facet normal -0 0 -1
    outer loop
      vertex -52.5 -40 0
      vertex -80.1098 -55 0
      vertex -52.5 40 0
    endloop
  endfacet
  facet normal 0 0 -1
    outer loop
      vertex 67.5 -40 0
      vertex 77 -54.7004 0
      vertex 76.4293 -55 0
    endloop
  endfacet
  facet normal 0 0 -1
    outer loop
      vertex 77 -54.7004 0
      vertex 67.5 -40 0
      vertex 77 54.7004 0
    endloop
  endfacet
  facet normal 0 0 -1
    outer loop
      vertex 67.5 40 0
      vertex 77 54.7004 0
      vertex 67.5 -40 0
    endloop
  endfacet
  facet normal 0 0 -1
    outer loop
      vertex 76.4293 -55 0
      vertex 53.5 -48 0
      vertex 67.5 -40 0
    endloop
  endfacet
  facet normal 0 0 -1
    outer loop
      vertex 76.4293 -55 0
      vertex 51.75 -51.0311 0
      vertex 53.5 -48 0
    endloop
  endfacet
  facet normal 0 0 -1
    outer loop
      vertex 76.4293 -55 0
      vertex 48.25 -51.0311 0
      vertex 51.75 -51.0311 0
    endloop
  endfacet
  facet normal 0 0 -1
    outer loop
      vertex 48.25 -51.0311 0
      vertex -46.5 -48 0
      vertex 46.5 -48 0
    endloop
  endfacet
  facet normal 0 0 -1
    outer loop
      vertex -48.25 -51.0311 0
      vertex 48.25 -51.0311 0
      vertex 76.4293 -55 0
    endloop
  endfacet
  facet normal 0 0 -1
    outer loop
      vertex 48.25 -51.0311 0
      vertex -48.25 -51.0311 0
      vertex -46.5 -48 0
    endloop
  endfacet
  facet normal 0 0 -1
    outer loop
      vertex -80.1098 -55 0
      vertex -48.25 -51.0311 0
      vertex 76.4293 -55 0
    endloop
  endfacet
  facet normal 0 0 -1
    outer loop
      vertex -80.1098 55 0
      vertex -52.5 40 0
      vertex -80.1098 -55 0
    endloop
  endfacet
  facet normal -0 0 -1
    outer loop
      vertex -51.75 -51.0311 0
      vertex -80.1098 -55 0
      vertex -53.5 -48 0
    endloop
  endfacet
  facet normal -0 0 -1
    outer loop
      vertex -48.25 -51.0311 0
      vertex -80.1098 -55 0
      vertex -51.75 -51.0311 0
    endloop
  endfacet
  facet normal -0 0 -1
    outer loop
      vertex 77 54.7004 0
      vertex 67.5 40 0
      vertex 76.4293 55 0
    endloop
  endfacet
  facet normal 0 0 -1
    outer loop
      vertex 53.5 48 0
      vertex 76.4293 55 0
      vertex 67.5 40 0
    endloop
  endfacet
  facet normal 0 0 -1
    outer loop
      vertex 51.75 51.0311 0
      vertex 76.4293 55 0
      vertex 53.5 48 0
    endloop
  endfacet
  facet normal 0 0 -1
    outer loop
      vertex 48.25 51.0311 0
      vertex 76.4293 55 0
      vertex 51.75 51.0311 0
    endloop
  endfacet
  facet normal 0 0 -1
    outer loop
      vertex -46.5 48 0
      vertex 48.25 51.0311 0
      vertex 46.5 48 0
    endloop
  endfacet
  facet normal 0 0 -1
    outer loop
      vertex -48.25 51.0311 0
      vertex 48.25 51.0311 0
      vertex -46.5 48 0
    endloop
  endfacet
  facet normal 0 0 -1
    outer loop
      vertex 48.25 51.0311 0
      vertex -48.25 51.0311 0
      vertex 76.4293 55 0
    endloop
  endfacet
  facet normal 0 0 -1
    outer loop
      vertex -80.1098 55 0
      vertex -48.25 51.0311 0
      vertex -51.75 51.0311 0
    endloop
  endfacet
  facet normal 0 0 -1
    outer loop
      vertex -48.25 51.0311 0
      vertex -80.1098 55 0
      vertex 76.4293 55 0
    endloop
  endfacet
  facet normal 0 0 -1
    outer loop
      vertex -53.5 48 0
      vertex -80.1098 55 0
      vertex -51.75 51.0311 0
    endloop
  endfacet
  facet normal 0 0 -1
    outer loop
      vertex -52.5 40 0
      vertex -80.1098 55 0
      vertex -53.5 48 0
    endloop
  endfacet
  facet normal 0 0 -1
    outer loop
      vertex 51.75 -44.9689 0
      vertex 67.5 -40 0
      vertex 53.5 -48 0
    endloop
  endfacet
  facet normal 0 0 -1
    outer loop
      vertex 48.25 -44.9689 0
      vertex 67.5 -40 0
      vertex 51.75 -44.9689 0
    endloop
  endfacet
  facet normal 0 0 -1
    outer loop
      vertex -46.5 -48 0
      vertex 48.25 -44.9689 0
      vertex 46.5 -48 0
    endloop
  endfacet
  facet normal 0 0 -1
    outer loop
      vertex -48.25 -44.9689 0
      vertex 48.25 -44.9689 0
      vertex -46.5 -48 0
    endloop
  endfacet
  facet normal 0 0 -1
    outer loop
      vertex -52.5 -40 0
      vertex 48.25 -44.9689 0
      vertex -48.25 -44.9689 0
    endloop
  endfacet
  facet normal 0 0 -1
    outer loop
      vertex -52.5 -40 0
      vertex -48.25 -44.9689 0
      vertex -51.75 -44.9689 0
    endloop
  endfacet
  facet normal 0 0 -1
    outer loop
      vertex 48.25 -44.9689 0
      vertex -52.5 -40 0
      vertex 67.5 -40 0
    endloop
  endfacet
  facet normal 0 0 -1
    outer loop
      vertex -80.1098 -55 0
      vertex -52.5 -40 0
      vertex -53.5 -48 0
    endloop
  endfacet
  facet normal 0 0 -1
    outer loop
      vertex -53.5 -48 0
      vertex -52.5 -40 0
      vertex -51.75 -44.9689 0
    endloop
  endfacet
  facet normal -1 0 0
    outer loop
      vertex 67.5 -40 0
      vertex 67.5 40 8.54439
      vertex 67.5 40 0
    endloop
  endfacet
  facet normal -1 -0 0
    outer loop
      vertex 67.5 40 8.54439
      vertex 67.5 -40 0
      vertex 67.5 -40 8.54439
    endloop
  endfacet
  facet normal 1 -0 0
    outer loop
      vertex -52.5 -40 2.25545
      vertex -52.5 40 0
      vertex -52.5 40 2.25545
    endloop
  endfacet
  facet normal 1 0 0
    outer loop
      vertex -52.5 40 0
      vertex -52.5 -40 2.25545
      vertex -52.5 -40 0
    endloop
  endfacet
  facet normal 0 -1 0
    outer loop
      vertex 67.5 40 0
      vertex -52.5 40 2.25545
      vertex -52.5 40 0
    endloop
  endfacet
  facet normal 0 -1 0
    outer loop
      vertex -52.5 40 2.25545
      vertex 67.5 40 0
      vertex 67.5 40 8.54439
    endloop
  endfacet
  facet normal 0 1 -0
    outer loop
      vertex 67.5 -40 0
      vertex -52.5 -40 2.25545
      vertex 67.5 -40 8.54439
    endloop
  endfacet
  facet normal 0 1 0
    outer loop
      vertex -52.5 -40 2.25545
      vertex 67.5 -40 0
      vertex -52.5 -40 0
    endloop
  endfacet
  facet normal -0.982278 -0.187429 0
    outer loop
      vertex 51.4882 48.188 4
      vertex 51.4529 48.373 7.70339
      vertex 51.4529 48.373 4
    endloop
  endfacet
  facet normal -0.982278 -0.187429 0
    outer loop
      vertex 51.4529 48.373 7.70339
      vertex 51.4882 48.188 4
      vertex 51.4882 48.188 7.70524
    endloop
  endfacet
  facet normal -0.998036 -0.0626427 0
    outer loop
      vertex 51.5 48 4
      vertex 51.4882 48.188 7.70524
      vertex 51.4882 48.188 4
    endloop
  endfacet
  facet normal -0.998036 -0.0626427 0
    outer loop
      vertex 51.4882 48.188 7.70524
      vertex 51.5 48 4
      vertex 51.5 48 7.70586
    endloop
  endfacet
  facet normal -0.844251 -0.535948 0
    outer loop
      vertex 51.3145 48.7226 4
      vertex 51.2135 48.8817 7.69085
      vertex 51.2135 48.8817 4
    endloop
  endfacet
  facet normal -0.844251 -0.535948 0
    outer loop
      vertex 51.2135 48.8817 7.69085
      vertex 51.3145 48.7226 4
      vertex 51.3145 48.7226 7.69614
    endloop
  endfacet
  facet normal -0.368278 0.929716 0
    outer loop
      vertex 50.6387 46.6428 4
      vertex 50.4635 46.5734 7.65154
      vertex 50.6387 46.6428 7.66072
    endloop
  endfacet
  facet normal -0.368278 0.929716 0
    outer loop
      vertex 50.4635 46.5734 7.65154
      vertex 50.6387 46.6428 4
      vertex 50.4635 46.5734 4
    endloop
  endfacet
  facet normal 0.951096 -0.308894 0
    outer loop
      vertex 48.5471 48.373 7.55111
      vertex 48.6053 48.5522 4
      vertex 48.6053 48.5522 7.55416
    endloop
  endfacet
  facet normal 0.951096 -0.308894 0
    outer loop
      vertex 48.6053 48.5522 4
      vertex 48.5471 48.373 7.55111
      vertex 48.5471 48.373 4
    endloop
  endfacet
  facet normal -0.368278 -0.929716 0
    outer loop
      vertex 50.6387 49.3572 4
      vertex 50.4635 49.4266 7.65154
      vertex 50.4635 49.4266 4
    endloop
  endfacet
  facet normal -0.368278 -0.929716 0
    outer loop
      vertex 50.4635 49.4266 7.65154
      vertex 50.6387 49.3572 4
      vertex 50.6387 49.3572 7.66072
    endloop
  endfacet
  facet normal -0.68447 -0.729041 0
    outer loop
      vertex 51.0935 49.0268 4
      vertex 50.9561 49.1558 7.67736
      vertex 50.9561 49.1558 4
    endloop
  endfacet
  facet normal -0.68447 -0.729041 0
    outer loop
      vertex 50.9561 49.1558 7.67736
      vertex 51.0935 49.0268 4
      vertex 51.0935 49.0268 7.68456
    endloop
  endfacet
  facet normal 0.982278 0.187429 0
    outer loop
      vertex 48.5471 47.627 7.55111
      vertex 48.5118 47.812 4
      vertex 48.5118 47.812 7.54926
    endloop
  endfacet
  facet normal 0.982278 0.187429 0
    outer loop
      vertex 48.5118 47.812 4
      vertex 48.5471 47.627 7.55111
      vertex 48.5471 47.627 4
    endloop
  endfacet
  facet normal 0.998036 0.0626427 0
    outer loop
      vertex 48.5118 47.812 7.54926
      vertex 48.5 48 4
      vertex 48.5 48 7.54864
    endloop
  endfacet
  facet normal 0.998036 0.0626427 0
    outer loop
      vertex 48.5 48 4
      vertex 48.5118 47.812 7.54926
      vertex 48.5118 47.812 4
    endloop
  endfacet
  facet normal 0.951096 0.308894 -0
    outer loop
      vertex 48.6053 47.4478 4
      vertex 48.5471 47.627 7.55111
      vertex 48.6053 47.4478 7.55416
    endloop
  endfacet
  facet normal 0.951096 0.308894 0
    outer loop
      vertex 48.5471 47.627 7.55111
      vertex 48.6053 47.4478 4
      vertex 48.5471 47.627 4
    endloop
  endfacet
  facet normal -0.982278 0.187429 0
    outer loop
      vertex 51.4529 47.627 4
      vertex 51.4882 47.812 7.70524
      vertex 51.4882 47.812 4
    endloop
  endfacet
  facet normal -0.982278 0.187429 0
    outer loop
      vertex 51.4882 47.812 7.70524
      vertex 51.4529 47.627 4
      vertex 51.4529 47.627 7.70339
    endloop
  endfacet
  facet normal -0.904795 -0.425848 0
    outer loop
      vertex 51.3947 48.5522 4
      vertex 51.3145 48.7226 7.69614
      vertex 51.3145 48.7226 4
    endloop
  endfacet
  facet normal -0.904795 -0.425848 0
    outer loop
      vertex 51.3145 48.7226 7.69614
      vertex 51.3947 48.5522 4
      vertex 51.3947 48.5522 7.70034
    endloop
  endfacet
  facet normal 0.587698 -0.80908 0
    outer loop
      vertex 49.1963 49.2665 4
      vertex 49.0439 49.1558 7.57714
      vertex 49.0439 49.1558 4
    endloop
  endfacet
  facet normal 0.587698 -0.80908 0
    outer loop
      vertex 49.0439 49.1558 7.57714
      vertex 49.1963 49.2665 4
      vertex 49.1963 49.2665 7.58513
    endloop
  endfacet
  facet normal 0.982278 -0.187429 0
    outer loop
      vertex 48.5118 48.188 7.54926
      vertex 48.5471 48.373 4
      vertex 48.5471 48.373 7.55111
    endloop
  endfacet
  facet normal 0.982278 -0.187429 0
    outer loop
      vertex 48.5471 48.373 4
      vertex 48.5118 48.188 7.54926
      vertex 48.5118 48.188 4
    endloop
  endfacet
  facet normal -0.587698 0.80908 0
    outer loop
      vertex 50.9561 46.8442 4
      vertex 50.8037 46.7335 7.66937
      vertex 50.9561 46.8442 7.67736
    endloop
  endfacet
  facet normal -0.587698 0.80908 0
    outer loop
      vertex 50.8037 46.7335 7.66937
      vertex 50.9561 46.8442 4
      vertex 50.8037 46.7335 4
    endloop
  endfacet
  facet normal -0.951096 -0.308894 0
    outer loop
      vertex 51.4529 48.373 4
      vertex 51.3947 48.5522 7.70034
      vertex 51.3947 48.5522 4
    endloop
  endfacet
  facet normal -0.951096 -0.308894 0
    outer loop
      vertex 51.3947 48.5522 7.70034
      vertex 51.4529 48.373 4
      vertex 51.4529 48.373 7.70339
    endloop
  endfacet
  facet normal -0.481715 0.876328 0
    outer loop
      vertex 50.8037 46.7335 4
      vertex 50.6387 46.6428 7.66072
      vertex 50.8037 46.7335 7.66937
    endloop
  endfacet
  facet normal -0.481715 0.876328 0
    outer loop
      vertex 50.6387 46.6428 7.66072
      vertex 50.8037 46.7335 4
      vertex 50.6387 46.6428 4
    endloop
  endfacet
  facet normal 0.68447 -0.729041 0
    outer loop
      vertex 49.0439 49.1558 4
      vertex 48.9065 49.0268 7.56995
      vertex 48.9065 49.0268 4
    endloop
  endfacet
  facet normal 0.68447 -0.729041 0
    outer loop
      vertex 48.9065 49.0268 7.56995
      vertex 49.0439 49.1558 4
      vertex 49.0439 49.1558 7.57714
    endloop
  endfacet
  facet normal 0.481715 -0.876328 0
    outer loop
      vertex 49.3613 49.3572 4
      vertex 49.1963 49.2665 7.58513
      vertex 49.1963 49.2665 4
    endloop
  endfacet
  facet normal 0.481715 -0.876328 0
    outer loop
      vertex 49.1963 49.2665 7.58513
      vertex 49.3613 49.3572 4
      vertex 49.3613 49.3572 7.59378
    endloop
  endfacet
  facet normal 0.77061 0.637307 -0
    outer loop
      vertex 48.9065 46.9732 4
      vertex 48.7865 47.1183 7.56365
      vertex 48.9065 46.9732 7.56995
    endloop
  endfacet
  facet normal 0.77061 0.637307 0
    outer loop
      vertex 48.7865 47.1183 7.56365
      vertex 48.9065 46.9732 4
      vertex 48.7865 47.1183 4
    endloop
  endfacet
  facet normal 0.904795 0.425848 -0
    outer loop
      vertex 48.6855 47.2774 4
      vertex 48.6053 47.4478 7.55416
      vertex 48.6855 47.2774 7.55836
    endloop
  endfacet
  facet normal 0.904795 0.425848 0
    outer loop
      vertex 48.6053 47.4478 7.55416
      vertex 48.6855 47.2774 4
      vertex 48.6053 47.4478 4
    endloop
  endfacet
  facet normal 0.481715 0.876328 -0
    outer loop
      vertex 49.3613 46.6428 4
      vertex 49.1963 46.7335 7.58513
      vertex 49.3613 46.6428 7.59378
    endloop
  endfacet
  facet normal 0.481715 0.876328 0
    outer loop
      vertex 49.1963 46.7335 7.58513
      vertex 49.3613 46.6428 4
      vertex 49.1963 46.7335 4
    endloop
  endfacet
  facet normal -0.998036 0.0626427 0
    outer loop
      vertex 51.4882 47.812 4
      vertex 51.5 48 7.70586
      vertex 51.5 48 4
    endloop
  endfacet
  facet normal -0.998036 0.0626427 0
    outer loop
      vertex 51.5 48 7.70586
      vertex 51.4882 47.812 4
      vertex 51.4882 47.812 7.70524
    endloop
  endfacet
  facet normal -0.481715 -0.876328 0
    outer loop
      vertex 50.8037 49.2665 4
      vertex 50.6387 49.3572 7.66072
      vertex 50.6387 49.3572 4
    endloop
  endfacet
  facet normal -0.481715 -0.876328 0
    outer loop
      vertex 50.6387 49.3572 7.66072
      vertex 50.8037 49.2665 4
      vertex 50.8037 49.2665 7.66937
    endloop
  endfacet
  facet normal -0.904795 0.425848 0
    outer loop
      vertex 51.3145 47.2774 7.69614
      vertex 51.3947 47.4478 4
      vertex 51.3145 47.2774 4
    endloop
  endfacet
  facet normal -0.904795 0.425848 0
    outer loop
      vertex 51.3947 47.4478 4
      vertex 51.3145 47.2774 7.69614
      vertex 51.3947 47.4478 7.70034
    endloop
  endfacet
  facet normal 0.844251 0.535948 -0
    outer loop
      vertex 48.7865 47.1183 4
      vertex 48.6855 47.2774 7.55836
      vertex 48.7865 47.1183 7.56365
    endloop
  endfacet
  facet normal 0.844251 0.535948 0
    outer loop
      vertex 48.6855 47.2774 7.55836
      vertex 48.7865 47.1183 4
      vertex 48.6855 47.2774 4
    endloop
  endfacet
  facet normal -0.248529 0.968625 0
    outer loop
      vertex 50.4635 46.5734 4
      vertex 50.2811 46.5266 7.64198
      vertex 50.4635 46.5734 7.65154
    endloop
  endfacet
  facet normal -0.248529 0.968625 0
    outer loop
      vertex 50.2811 46.5266 7.64198
      vertex 50.4635 46.5734 4
      vertex 50.2811 46.5266 4
    endloop
  endfacet
  facet normal -0.248529 -0.968625 0
    outer loop
      vertex 50.4635 49.4266 4
      vertex 50.2811 49.4734 7.64198
      vertex 50.2811 49.4734 4
    endloop
  endfacet
  facet normal -0.248529 -0.968625 0
    outer loop
      vertex 50.2811 49.4734 7.64198
      vertex 50.4635 49.4266 4
      vertex 50.4635 49.4266 7.65154
    endloop
  endfacet
  facet normal 0.248529 -0.968625 0
    outer loop
      vertex 49.7189 49.4734 4
      vertex 49.5365 49.4266 7.60296
      vertex 49.5365 49.4266 4
    endloop
  endfacet
  facet normal 0.248529 -0.968625 0
    outer loop
      vertex 49.5365 49.4266 7.60296
      vertex 49.7189 49.4734 4
      vertex 49.7189 49.4734 7.61252
    endloop
  endfacet
  facet normal -0.951096 0.308894 0
    outer loop
      vertex 51.3947 47.4478 7.70034
      vertex 51.4529 47.627 4
      vertex 51.3947 47.4478 4
    endloop
  endfacet
  facet normal -0.951096 0.308894 0
    outer loop
      vertex 51.4529 47.627 4
      vertex 51.3947 47.4478 7.70034
      vertex 51.4529 47.627 7.70339
    endloop
  endfacet
  facet normal -0.77061 0.637307 0
    outer loop
      vertex 51.0935 46.9732 7.68456
      vertex 51.2135 47.1183 4
      vertex 51.0935 46.9732 4
    endloop
  endfacet
  facet normal -0.77061 0.637307 0
    outer loop
      vertex 51.2135 47.1183 4
      vertex 51.0935 46.9732 7.68456
      vertex 51.2135 47.1183 7.69085
    endloop
  endfacet
  facet normal -0.844251 0.535948 0
    outer loop
      vertex 51.2135 47.1183 7.69085
      vertex 51.3145 47.2774 4
      vertex 51.2135 47.1183 4
    endloop
  endfacet
  facet normal -0.844251 0.535948 0
    outer loop
      vertex 51.3145 47.2774 4
      vertex 51.2135 47.1183 7.69085
      vertex 51.3145 47.2774 7.69614
    endloop
  endfacet
  facet normal 0.844251 -0.535948 0
    outer loop
      vertex 48.6855 48.7226 7.55836
      vertex 48.7865 48.8817 4
      vertex 48.7865 48.8817 7.56365
    endloop
  endfacet
  facet normal 0.844251 -0.535948 0
    outer loop
      vertex 48.7865 48.8817 4
      vertex 48.6855 48.7226 7.55836
      vertex 48.6855 48.7226 4
    endloop
  endfacet
  facet normal 0 1 -0
    outer loop
      vertex 50.0942 46.503 4
      vertex 49.9058 46.503 7.62231
      vertex 50.0942 46.503 7.63219
    endloop
  endfacet
  facet normal 0 1 0
    outer loop
      vertex 49.9058 46.503 7.62231
      vertex 50.0942 46.503 4
      vertex 49.9058 46.503 4
    endloop
  endfacet
  facet normal 0.68447 0.729041 -0
    outer loop
      vertex 49.0439 46.8442 4
      vertex 48.9065 46.9732 7.56995
      vertex 49.0439 46.8442 7.57714
    endloop
  endfacet
  facet normal 0.68447 0.729041 0
    outer loop
      vertex 48.9065 46.9732 7.56995
      vertex 49.0439 46.8442 4
      vertex 48.9065 46.9732 4
    endloop
  endfacet
  facet normal 0.998036 -0.0626427 0
    outer loop
      vertex 48.5 48 7.54864
      vertex 48.5118 48.188 4
      vertex 48.5118 48.188 7.54926
    endloop
  endfacet
  facet normal 0.998036 -0.0626427 0
    outer loop
      vertex 48.5118 48.188 4
      vertex 48.5 48 7.54864
      vertex 48.5 48 4
    endloop
  endfacet
  facet normal 0.368278 -0.929716 0
    outer loop
      vertex 49.5365 49.4266 4
      vertex 49.3613 49.3572 7.59378
      vertex 49.3613 49.3572 4
    endloop
  endfacet
  facet normal 0.368278 -0.929716 0
    outer loop
      vertex 49.3613 49.3572 7.59378
      vertex 49.5365 49.4266 4
      vertex 49.5365 49.4266 7.60296
    endloop
  endfacet
  facet normal 0.904795 -0.425848 0
    outer loop
      vertex 48.6053 48.5522 7.55416
      vertex 48.6855 48.7226 4
      vertex 48.6855 48.7226 7.55836
    endloop
  endfacet
  facet normal 0.904795 -0.425848 0
    outer loop
      vertex 48.6855 48.7226 4
      vertex 48.6053 48.5522 7.55416
      vertex 48.6053 48.5522 4
    endloop
  endfacet
  facet normal 0.125276 0.992122 -0
    outer loop
      vertex 49.9058 46.503 4
      vertex 49.7189 46.5266 7.61252
      vertex 49.9058 46.503 7.62231
    endloop
  endfacet
  facet normal 0.125276 0.992122 0
    outer loop
      vertex 49.7189 46.5266 7.61252
      vertex 49.9058 46.503 4
      vertex 49.7189 46.5266 4
    endloop
  endfacet
  facet normal -0.77061 -0.637307 0
    outer loop
      vertex 51.2135 48.8817 4
      vertex 51.0935 49.0268 7.68456
      vertex 51.0935 49.0268 4
    endloop
  endfacet
  facet normal -0.77061 -0.637307 0
    outer loop
      vertex 51.0935 49.0268 7.68456
      vertex 51.2135 48.8817 4
      vertex 51.2135 48.8817 7.69085
    endloop
  endfacet
  facet normal -0.587698 -0.80908 0
    outer loop
      vertex 50.9561 49.1558 4
      vertex 50.8037 49.2665 7.66937
      vertex 50.8037 49.2665 4
    endloop
  endfacet
  facet normal -0.587698 -0.80908 0
    outer loop
      vertex 50.8037 49.2665 7.66937
      vertex 50.9561 49.1558 4
      vertex 50.9561 49.1558 7.67736
    endloop
  endfacet
  facet normal 0.77061 -0.637307 0
    outer loop
      vertex 48.7865 48.8817 7.56365
      vertex 48.9065 49.0268 4
      vertex 48.9065 49.0268 7.56995
    endloop
  endfacet
  facet normal 0.77061 -0.637307 0
    outer loop
      vertex 48.9065 49.0268 4
      vertex 48.7865 48.8817 7.56365
      vertex 48.7865 48.8817 4
    endloop
  endfacet
  facet normal -0.125276 -0.992122 0
    outer loop
      vertex 50.2811 49.4734 4
      vertex 50.0942 49.497 7.63219
      vertex 50.0942 49.497 4
    endloop
  endfacet
  facet normal -0.125276 -0.992122 0
    outer loop
      vertex 50.0942 49.497 7.63219
      vertex 50.2811 49.4734 4
      vertex 50.2811 49.4734 7.64198
    endloop
  endfacet
  facet normal 0.587698 0.80908 -0
    outer loop
      vertex 49.1963 46.7335 4
      vertex 49.0439 46.8442 7.57714
      vertex 49.1963 46.7335 7.58513
    endloop
  endfacet
  facet normal 0.587698 0.80908 0
    outer loop
      vertex 49.0439 46.8442 7.57714
      vertex 49.1963 46.7335 4
      vertex 49.0439 46.8442 4
    endloop
  endfacet
  facet normal -0.125276 0.992122 0
    outer loop
      vertex 50.2811 46.5266 4
      vertex 50.0942 46.503 7.63219
      vertex 50.2811 46.5266 7.64198
    endloop
  endfacet
  facet normal -0.125276 0.992122 0
    outer loop
      vertex 50.0942 46.503 7.63219
      vertex 50.2811 46.5266 4
      vertex 50.0942 46.503 4
    endloop
  endfacet
  facet normal 0.125276 -0.992122 0
    outer loop
      vertex 49.9058 49.497 4
      vertex 49.7189 49.4734 7.61252
      vertex 49.7189 49.4734 4
    endloop
  endfacet
  facet normal 0.125276 -0.992122 0
    outer loop
      vertex 49.7189 49.4734 7.61252
      vertex 49.9058 49.497 4
      vertex 49.9058 49.497 7.62231
    endloop
  endfacet
  facet normal -0.68447 0.729041 0
    outer loop
      vertex 51.0935 46.9732 4
      vertex 50.9561 46.8442 7.67736
      vertex 51.0935 46.9732 7.68456
    endloop
  endfacet
  facet normal -0.68447 0.729041 0
    outer loop
      vertex 50.9561 46.8442 7.67736
      vertex 51.0935 46.9732 4
      vertex 50.9561 46.8442 4
    endloop
  endfacet
  facet normal 0 -1 0
    outer loop
      vertex 50.0942 49.497 4
      vertex 49.9058 49.497 7.62231
      vertex 49.9058 49.497 4
    endloop
  endfacet
  facet normal 0 -1 0
    outer loop
      vertex 49.9058 49.497 7.62231
      vertex 50.0942 49.497 4
      vertex 50.0942 49.497 7.63219
    endloop
  endfacet
  facet normal 0.248529 0.968625 -0
    outer loop
      vertex 49.7189 46.5266 4
      vertex 49.5365 46.5734 7.60296
      vertex 49.7189 46.5266 7.61252
    endloop
  endfacet
  facet normal 0.248529 0.968625 0
    outer loop
      vertex 49.5365 46.5734 7.60296
      vertex 49.7189 46.5266 4
      vertex 49.5365 46.5734 4
    endloop
  endfacet
  facet normal 0.368278 0.929716 -0
    outer loop
      vertex 49.5365 46.5734 4
      vertex 49.3613 46.6428 7.59378
      vertex 49.5365 46.5734 7.60296
    endloop
  endfacet
  facet normal 0.368278 0.929716 0
    outer loop
      vertex 49.3613 46.6428 7.59378
      vertex 49.5365 46.5734 4
      vertex 49.3613 46.6428 4
    endloop
  endfacet
  facet normal -0.982278 -0.187429 0
    outer loop
      vertex 51.4882 -47.812 4
      vertex 51.4529 -47.627 7.70339
      vertex 51.4529 -47.627 4
    endloop
  endfacet
  facet normal -0.982278 -0.187429 0
    outer loop
      vertex 51.4529 -47.627 7.70339
      vertex 51.4882 -47.812 4
      vertex 51.4882 -47.812 7.70524
    endloop
  endfacet
  facet normal -0.998036 -0.0626427 0
    outer loop
      vertex 51.5 -48 4
      vertex 51.4882 -47.812 7.70524
      vertex 51.4882 -47.812 4
    endloop
  endfacet
  facet normal -0.998036 -0.0626427 0
    outer loop
      vertex 51.4882 -47.812 7.70524
      vertex 51.5 -48 4
      vertex 51.5 -48 7.70586
    endloop
  endfacet
  facet normal -0.998036 0.0626427 0
    outer loop
      vertex 51.4882 -48.188 4
      vertex 51.5 -48 7.70586
      vertex 51.5 -48 4
    endloop
  endfacet
  facet normal -0.998036 0.0626427 0
    outer loop
      vertex 51.5 -48 7.70586
      vertex 51.4882 -48.188 4
      vertex 51.4882 -48.188 7.70524
    endloop
  endfacet
  facet normal -0.68447 -0.729041 0
    outer loop
      vertex 51.0935 -46.9732 4
      vertex 50.9561 -46.8442 7.67736
      vertex 50.9561 -46.8442 4
    endloop
  endfacet
  facet normal -0.68447 -0.729041 0
    outer loop
      vertex 50.9561 -46.8442 7.67736
      vertex 51.0935 -46.9732 4
      vertex 51.0935 -46.9732 7.68456
    endloop
  endfacet
  facet normal -0.844251 0.535948 0
    outer loop
      vertex 51.2135 -48.8817 7.69085
      vertex 51.3145 -48.7226 4
      vertex 51.2135 -48.8817 4
    endloop
  endfacet
  facet normal -0.844251 0.535948 0
    outer loop
      vertex 51.3145 -48.7226 4
      vertex 51.2135 -48.8817 7.69085
      vertex 51.3145 -48.7226 7.69614
    endloop
  endfacet
  facet normal -0.587698 0.80908 0
    outer loop
      vertex 50.9561 -49.1558 4
      vertex 50.8037 -49.2665 7.66937
      vertex 50.9561 -49.1558 7.67736
    endloop
  endfacet
  facet normal -0.587698 0.80908 0
    outer loop
      vertex 50.8037 -49.2665 7.66937
      vertex 50.9561 -49.1558 4
      vertex 50.8037 -49.2665 4
    endloop
  endfacet
  facet normal -0.68447 0.729041 0
    outer loop
      vertex 51.0935 -49.0268 4
      vertex 50.9561 -49.1558 7.67736
      vertex 51.0935 -49.0268 7.68456
    endloop
  endfacet
  facet normal -0.68447 0.729041 0
    outer loop
      vertex 50.9561 -49.1558 7.67736
      vertex 51.0935 -49.0268 4
      vertex 50.9561 -49.1558 4
    endloop
  endfacet
  facet normal 0.904795 0.425848 -0
    outer loop
      vertex 48.6855 -48.7226 4
      vertex 48.6053 -48.5522 7.55416
      vertex 48.6855 -48.7226 7.55836
    endloop
  endfacet
  facet normal 0.904795 0.425848 0
    outer loop
      vertex 48.6053 -48.5522 7.55416
      vertex 48.6855 -48.7226 4
      vertex 48.6053 -48.5522 4
    endloop
  endfacet
  facet normal 0.481715 -0.876328 0
    outer loop
      vertex 49.3613 -46.6428 4
      vertex 49.1963 -46.7335 7.58513
      vertex 49.1963 -46.7335 4
    endloop
  endfacet
  facet normal 0.481715 -0.876328 0
    outer loop
      vertex 49.1963 -46.7335 7.58513
      vertex 49.3613 -46.6428 4
      vertex 49.3613 -46.6428 7.59378
    endloop
  endfacet
  facet normal -0.125276 0.992122 0
    outer loop
      vertex 50.2811 -49.4734 4
      vertex 50.0942 -49.497 7.63219
      vertex 50.2811 -49.4734 7.64198
    endloop
  endfacet
  facet normal -0.125276 0.992122 0
    outer loop
      vertex 50.0942 -49.497 7.63219
      vertex 50.2811 -49.4734 4
      vertex 50.0942 -49.497 4
    endloop
  endfacet
  facet normal 0.587698 -0.80908 0
    outer loop
      vertex 49.1963 -46.7335 4
      vertex 49.0439 -46.8442 7.57714
      vertex 49.0439 -46.8442 4
    endloop
  endfacet
  facet normal 0.587698 -0.80908 0
    outer loop
      vertex 49.0439 -46.8442 7.57714
      vertex 49.1963 -46.7335 4
      vertex 49.1963 -46.7335 7.58513
    endloop
  endfacet
  facet normal -0.904795 -0.425848 0
    outer loop
      vertex 51.3947 -47.4478 4
      vertex 51.3145 -47.2774 7.69614
      vertex 51.3145 -47.2774 4
    endloop
  endfacet
  facet normal -0.904795 -0.425848 0
    outer loop
      vertex 51.3145 -47.2774 7.69614
      vertex 51.3947 -47.4478 4
      vertex 51.3947 -47.4478 7.70034
    endloop
  endfacet
  facet normal 0.904795 -0.425848 0
    outer loop
      vertex 48.6053 -47.4478 7.55416
      vertex 48.6855 -47.2774 4
      vertex 48.6855 -47.2774 7.55836
    endloop
  endfacet
  facet normal 0.904795 -0.425848 0
    outer loop
      vertex 48.6855 -47.2774 4
      vertex 48.6053 -47.4478 7.55416
      vertex 48.6053 -47.4478 4
    endloop
  endfacet
  facet normal 0.125276 0.992122 -0
    outer loop
      vertex 49.9058 -49.497 4
      vertex 49.7189 -49.4734 7.61252
      vertex 49.9058 -49.497 7.62231
    endloop
  endfacet
  facet normal 0.125276 0.992122 0
    outer loop
      vertex 49.7189 -49.4734 7.61252
      vertex 49.9058 -49.497 4
      vertex 49.7189 -49.4734 4
    endloop
  endfacet
  facet normal -0.248529 0.968625 0
    outer loop
      vertex 50.4635 -49.4266 4
      vertex 50.2811 -49.4734 7.64198
      vertex 50.4635 -49.4266 7.65154
    endloop
  endfacet
  facet normal -0.248529 0.968625 0
    outer loop
      vertex 50.2811 -49.4734 7.64198
      vertex 50.4635 -49.4266 4
      vertex 50.2811 -49.4734 4
    endloop
  endfacet
  facet normal 0.951096 -0.308894 0
    outer loop
      vertex 48.5471 -47.627 7.55111
      vertex 48.6053 -47.4478 4
      vertex 48.6053 -47.4478 7.55416
    endloop
  endfacet
  facet normal 0.951096 -0.308894 0
    outer loop
      vertex 48.6053 -47.4478 4
      vertex 48.5471 -47.627 7.55111
      vertex 48.5471 -47.627 4
    endloop
  endfacet
  facet normal -0.368278 0.929716 0
    outer loop
      vertex 50.6387 -49.3572 4
      vertex 50.4635 -49.4266 7.65154
      vertex 50.6387 -49.3572 7.66072
    endloop
  endfacet
  facet normal -0.368278 0.929716 0
    outer loop
      vertex 50.4635 -49.4266 7.65154
      vertex 50.6387 -49.3572 4
      vertex 50.4635 -49.4266 4
    endloop
  endfacet
  facet normal 0.998036 0.0626427 0
    outer loop
      vertex 48.5118 -48.188 7.54926
      vertex 48.5 -48 4
      vertex 48.5 -48 7.54864
    endloop
  endfacet
  facet normal 0.998036 0.0626427 0
    outer loop
      vertex 48.5 -48 4
      vertex 48.5118 -48.188 7.54926
      vertex 48.5118 -48.188 4
    endloop
  endfacet
  facet normal -0.844251 -0.535948 0
    outer loop
      vertex 51.3145 -47.2774 4
      vertex 51.2135 -47.1183 7.69085
      vertex 51.2135 -47.1183 4
    endloop
  endfacet
  facet normal -0.844251 -0.535948 0
    outer loop
      vertex 51.2135 -47.1183 7.69085
      vertex 51.3145 -47.2774 4
      vertex 51.3145 -47.2774 7.69614
    endloop
  endfacet
  facet normal 0.68447 0.729041 -0
    outer loop
      vertex 49.0439 -49.1558 4
      vertex 48.9065 -49.0268 7.56995
      vertex 49.0439 -49.1558 7.57714
    endloop
  endfacet
  facet normal 0.68447 0.729041 0
    outer loop
      vertex 48.9065 -49.0268 7.56995
      vertex 49.0439 -49.1558 4
      vertex 48.9065 -49.0268 4
    endloop
  endfacet
  facet normal 0.481715 0.876328 -0
    outer loop
      vertex 49.3613 -49.3572 4
      vertex 49.1963 -49.2665 7.58513
      vertex 49.3613 -49.3572 7.59378
    endloop
  endfacet
  facet normal 0.481715 0.876328 0
    outer loop
      vertex 49.1963 -49.2665 7.58513
      vertex 49.3613 -49.3572 4
      vertex 49.1963 -49.2665 4
    endloop
  endfacet
  facet normal -0.951096 0.308894 0
    outer loop
      vertex 51.3947 -48.5522 7.70034
      vertex 51.4529 -48.373 4
      vertex 51.3947 -48.5522 4
    endloop
  endfacet
  facet normal -0.951096 0.308894 0
    outer loop
      vertex 51.4529 -48.373 4
      vertex 51.3947 -48.5522 7.70034
      vertex 51.4529 -48.373 7.70339
    endloop
  endfacet
  facet normal -0.587698 -0.80908 0
    outer loop
      vertex 50.9561 -46.8442 4
      vertex 50.8037 -46.7335 7.66937
      vertex 50.8037 -46.7335 4
    endloop
  endfacet
  facet normal -0.587698 -0.80908 0
    outer loop
      vertex 50.8037 -46.7335 7.66937
      vertex 50.9561 -46.8442 4
      vertex 50.9561 -46.8442 7.67736
    endloop
  endfacet
  facet normal 0.77061 0.637307 -0
    outer loop
      vertex 48.9065 -49.0268 4
      vertex 48.7865 -48.8817 7.56365
      vertex 48.9065 -49.0268 7.56995
    endloop
  endfacet
  facet normal 0.77061 0.637307 0
    outer loop
      vertex 48.7865 -48.8817 7.56365
      vertex 48.9065 -49.0268 4
      vertex 48.7865 -48.8817 4
    endloop
  endfacet
  facet normal -0.125276 -0.992122 0
    outer loop
      vertex 50.2811 -46.5266 4
      vertex 50.0942 -46.503 7.63219
      vertex 50.0942 -46.503 4
    endloop
  endfacet
  facet normal -0.125276 -0.992122 0
    outer loop
      vertex 50.0942 -46.503 7.63219
      vertex 50.2811 -46.5266 4
      vertex 50.2811 -46.5266 7.64198
    endloop
  endfacet
  facet normal 0.982278 -0.187429 0
    outer loop
      vertex 48.5118 -47.812 7.54926
      vertex 48.5471 -47.627 4
      vertex 48.5471 -47.627 7.55111
    endloop
  endfacet
  facet normal 0.982278 -0.187429 0
    outer loop
      vertex 48.5471 -47.627 4
      vertex 48.5118 -47.812 7.54926
      vertex 48.5118 -47.812 4
    endloop
  endfacet
  facet normal 0.998036 -0.0626427 0
    outer loop
      vertex 48.5 -48 7.54864
      vertex 48.5118 -47.812 4
      vertex 48.5118 -47.812 7.54926
    endloop
  endfacet
  facet normal 0.998036 -0.0626427 0
    outer loop
      vertex 48.5118 -47.812 4
      vertex 48.5 -48 7.54864
      vertex 48.5 -48 4
    endloop
  endfacet
  facet normal 0.368278 -0.929716 0
    outer loop
      vertex 49.5365 -46.5734 4
      vertex 49.3613 -46.6428 7.59378
      vertex 49.3613 -46.6428 4
    endloop
  endfacet
  facet normal 0.368278 -0.929716 0
    outer loop
      vertex 49.3613 -46.6428 7.59378
      vertex 49.5365 -46.5734 4
      vertex 49.5365 -46.5734 7.60296
    endloop
  endfacet
  facet normal -0.982278 0.187429 0
    outer loop
      vertex 51.4529 -48.373 4
      vertex 51.4882 -48.188 7.70524
      vertex 51.4882 -48.188 4
    endloop
  endfacet
  facet normal -0.982278 0.187429 0
    outer loop
      vertex 51.4882 -48.188 7.70524
      vertex 51.4529 -48.373 4
      vertex 51.4529 -48.373 7.70339
    endloop
  endfacet
  facet normal 0 1 -0
    outer loop
      vertex 50.0942 -49.497 4
      vertex 49.9058 -49.497 7.62231
      vertex 50.0942 -49.497 7.63219
    endloop
  endfacet
  facet normal 0 1 0
    outer loop
      vertex 49.9058 -49.497 7.62231
      vertex 50.0942 -49.497 4
      vertex 49.9058 -49.497 4
    endloop
  endfacet
  facet normal -0.481715 0.876328 0
    outer loop
      vertex 50.8037 -49.2665 4
      vertex 50.6387 -49.3572 7.66072
      vertex 50.8037 -49.2665 7.66937
    endloop
  endfacet
  facet normal -0.481715 0.876328 0
    outer loop
      vertex 50.6387 -49.3572 7.66072
      vertex 50.8037 -49.2665 4
      vertex 50.6387 -49.3572 4
    endloop
  endfacet
  facet normal 0.125276 -0.992122 0
    outer loop
      vertex 49.9058 -46.503 4
      vertex 49.7189 -46.5266 7.61252
      vertex 49.7189 -46.5266 4
    endloop
  endfacet
  facet normal 0.125276 -0.992122 0
    outer loop
      vertex 49.7189 -46.5266 7.61252
      vertex 49.9058 -46.503 4
      vertex 49.9058 -46.503 7.62231
    endloop
  endfacet
  facet normal 0.844251 -0.535948 0
    outer loop
      vertex 48.6855 -47.2774 7.55836
      vertex 48.7865 -47.1183 4
      vertex 48.7865 -47.1183 7.56365
    endloop
  endfacet
  facet normal 0.844251 -0.535948 0
    outer loop
      vertex 48.7865 -47.1183 4
      vertex 48.6855 -47.2774 7.55836
      vertex 48.6855 -47.2774 4
    endloop
  endfacet
  facet normal 0.248529 -0.968625 0
    outer loop
      vertex 49.7189 -46.5266 4
      vertex 49.5365 -46.5734 7.60296
      vertex 49.5365 -46.5734 4
    endloop
  endfacet
  facet normal 0.248529 -0.968625 0
    outer loop
      vertex 49.5365 -46.5734 7.60296
      vertex 49.7189 -46.5266 4
      vertex 49.7189 -46.5266 7.61252
    endloop
  endfacet
  facet normal -0.248529 -0.968625 0
    outer loop
      vertex 50.4635 -46.5734 4
      vertex 50.2811 -46.5266 7.64198
      vertex 50.2811 -46.5266 4
    endloop
  endfacet
  facet normal -0.248529 -0.968625 0
    outer loop
      vertex 50.2811 -46.5266 7.64198
      vertex 50.4635 -46.5734 4
      vertex 50.4635 -46.5734 7.65154
    endloop
  endfacet
  facet normal 0 -1 0
    outer loop
      vertex 50.0942 -46.503 4
      vertex 49.9058 -46.503 7.62231
      vertex 49.9058 -46.503 4
    endloop
  endfacet
  facet normal 0 -1 0
    outer loop
      vertex 49.9058 -46.503 7.62231
      vertex 50.0942 -46.503 4
      vertex 50.0942 -46.503 7.63219
    endloop
  endfacet
  facet normal -0.77061 0.637307 0
    outer loop
      vertex 51.0935 -49.0268 7.68456
      vertex 51.2135 -48.8817 4
      vertex 51.0935 -49.0268 4
    endloop
  endfacet
  facet normal -0.77061 0.637307 0
    outer loop
      vertex 51.2135 -48.8817 4
      vertex 51.0935 -49.0268 7.68456
      vertex 51.2135 -48.8817 7.69085
    endloop
  endfacet
  facet normal -0.904795 0.425848 0
    outer loop
      vertex 51.3145 -48.7226 7.69614
      vertex 51.3947 -48.5522 4
      vertex 51.3145 -48.7226 4
    endloop
  endfacet
  facet normal -0.904795 0.425848 0
    outer loop
      vertex 51.3947 -48.5522 4
      vertex 51.3145 -48.7226 7.69614
      vertex 51.3947 -48.5522 7.70034
    endloop
  endfacet
  facet normal -0.368278 -0.929716 0
    outer loop
      vertex 50.6387 -46.6428 4
      vertex 50.4635 -46.5734 7.65154
      vertex 50.4635 -46.5734 4
    endloop
  endfacet
  facet normal -0.368278 -0.929716 0
    outer loop
      vertex 50.4635 -46.5734 7.65154
      vertex 50.6387 -46.6428 4
      vertex 50.6387 -46.6428 7.66072
    endloop
  endfacet
  facet normal 0.982278 0.187429 0
    outer loop
      vertex 48.5471 -48.373 7.55111
      vertex 48.5118 -48.188 4
      vertex 48.5118 -48.188 7.54926
    endloop
  endfacet
  facet normal 0.982278 0.187429 0
    outer loop
      vertex 48.5118 -48.188 4
      vertex 48.5471 -48.373 7.55111
      vertex 48.5471 -48.373 4
    endloop
  endfacet
  facet normal -0.481715 -0.876328 0
    outer loop
      vertex 50.8037 -46.7335 4
      vertex 50.6387 -46.6428 7.66072
      vertex 50.6387 -46.6428 4
    endloop
  endfacet
  facet normal -0.481715 -0.876328 0
    outer loop
      vertex 50.6387 -46.6428 7.66072
      vertex 50.8037 -46.7335 4
      vertex 50.8037 -46.7335 7.66937
    endloop
  endfacet
  facet normal 0.844251 0.535948 -0
    outer loop
      vertex 48.7865 -48.8817 4
      vertex 48.6855 -48.7226 7.55836
      vertex 48.7865 -48.8817 7.56365
    endloop
  endfacet
  facet normal 0.844251 0.535948 0
    outer loop
      vertex 48.6855 -48.7226 7.55836
      vertex 48.7865 -48.8817 4
      vertex 48.6855 -48.7226 4
    endloop
  endfacet
  facet normal -0.77061 -0.637307 0
    outer loop
      vertex 51.2135 -47.1183 4
      vertex 51.0935 -46.9732 7.68456
      vertex 51.0935 -46.9732 4
    endloop
  endfacet
  facet normal -0.77061 -0.637307 0
    outer loop
      vertex 51.0935 -46.9732 7.68456
      vertex 51.2135 -47.1183 4
      vertex 51.2135 -47.1183 7.69085
    endloop
  endfacet
  facet normal -0.951096 -0.308894 0
    outer loop
      vertex 51.4529 -47.627 4
      vertex 51.3947 -47.4478 7.70034
      vertex 51.3947 -47.4478 4
    endloop
  endfacet
  facet normal -0.951096 -0.308894 0
    outer loop
      vertex 51.3947 -47.4478 7.70034
      vertex 51.4529 -47.627 4
      vertex 51.4529 -47.627 7.70339
    endloop
  endfacet
  facet normal 0.951096 0.308894 -0
    outer loop
      vertex 48.6053 -48.5522 4
      vertex 48.5471 -48.373 7.55111
      vertex 48.6053 -48.5522 7.55416
    endloop
  endfacet
  facet normal 0.951096 0.308894 0
    outer loop
      vertex 48.5471 -48.373 7.55111
      vertex 48.6053 -48.5522 4
      vertex 48.5471 -48.373 4
    endloop
  endfacet
  facet normal 0.68447 -0.729041 0
    outer loop
      vertex 49.0439 -46.8442 4
      vertex 48.9065 -46.9732 7.56995
      vertex 48.9065 -46.9732 4
    endloop
  endfacet
  facet normal 0.68447 -0.729041 0
    outer loop
      vertex 48.9065 -46.9732 7.56995
      vertex 49.0439 -46.8442 4
      vertex 49.0439 -46.8442 7.57714
    endloop
  endfacet
  facet normal 0.77061 -0.637307 0
    outer loop
      vertex 48.7865 -47.1183 7.56365
      vertex 48.9065 -46.9732 4
      vertex 48.9065 -46.9732 7.56995
    endloop
  endfacet
  facet normal 0.77061 -0.637307 0
    outer loop
      vertex 48.9065 -46.9732 4
      vertex 48.7865 -47.1183 7.56365
      vertex 48.7865 -47.1183 4
    endloop
  endfacet
  facet normal 0.587698 0.80908 -0
    outer loop
      vertex 49.1963 -49.2665 4
      vertex 49.0439 -49.1558 7.57714
      vertex 49.1963 -49.2665 7.58513
    endloop
  endfacet
  facet normal 0.587698 0.80908 0
    outer loop
      vertex 49.0439 -49.1558 7.57714
      vertex 49.1963 -49.2665 4
      vertex 49.0439 -49.1558 4
    endloop
  endfacet
  facet normal 0.248529 0.968625 -0
    outer loop
      vertex 49.7189 -49.4734 4
      vertex 49.5365 -49.4266 7.60296
      vertex 49.7189 -49.4734 7.61252
    endloop
  endfacet
  facet normal 0.248529 0.968625 0
    outer loop
      vertex 49.5365 -49.4266 7.60296
      vertex 49.7189 -49.4734 4
      vertex 49.5365 -49.4266 4
    endloop
  endfacet
  facet normal 0.368278 0.929716 -0
    outer loop
      vertex 49.5365 -49.4266 4
      vertex 49.3613 -49.3572 7.59378
      vertex 49.5365 -49.4266 7.60296
    endloop
  endfacet
  facet normal 0.368278 0.929716 0
    outer loop
      vertex 49.3613 -49.3572 7.59378
      vertex 49.5365 -49.4266 4
      vertex 49.3613 -49.3572 4
    endloop
  endfacet
  facet normal 0 1 -0
    outer loop
      vertex 51.75 44.9689 0
      vertex 48.25 44.9689 4
      vertex 51.75 44.9689 4
    endloop
  endfacet
  facet normal 0 1 0
    outer loop
      vertex 48.25 44.9689 4
      vertex 51.75 44.9689 0
      vertex 48.25 44.9689 0
    endloop
  endfacet
  facet normal 0 -1 0
    outer loop
      vertex 48.25 51.0311 0
      vertex 51.75 51.0311 4
      vertex 48.25 51.0311 4
    endloop
  endfacet
  facet normal 0 -1 -0
    outer loop
      vertex 51.75 51.0311 4
      vertex 48.25 51.0311 0
      vertex 51.75 51.0311 0
    endloop
  endfacet
  facet normal -0.866026 -0.499999 0
    outer loop
      vertex 53.5 48 0
      vertex 51.75 51.0311 4
      vertex 51.75 51.0311 0
    endloop
  endfacet
  facet normal -0.866026 -0.499999 0
    outer loop
      vertex 51.75 51.0311 4
      vertex 53.5 48 0
      vertex 53.5 48 4
    endloop
  endfacet
  facet normal 0.866026 -0.499999 0
    outer loop
      vertex 46.5 48 4
      vertex 48.25 51.0311 0
      vertex 48.25 51.0311 4
    endloop
  endfacet
  facet normal 0.866026 -0.499999 0
    outer loop
      vertex 48.25 51.0311 0
      vertex 46.5 48 4
      vertex 46.5 48 0
    endloop
  endfacet
  facet normal 0.866026 0.499999 0
    outer loop
      vertex 48.25 44.9689 4
      vertex 46.5 48 0
      vertex 46.5 48 4
    endloop
  endfacet
  facet normal 0.866026 0.499999 0
    outer loop
      vertex 46.5 48 0
      vertex 48.25 44.9689 4
      vertex 48.25 44.9689 0
    endloop
  endfacet
  facet normal 0 0 -1
    outer loop
      vertex 51.3145 47.2774 4
      vertex 53.5 48 4
      vertex 51.75 44.9689 4
    endloop
  endfacet
  facet normal 0 0 -1
    outer loop
      vertex 51.4882 48.188 4
      vertex 53.5 48 4
      vertex 51.5 48 4
    endloop
  endfacet
  facet normal -0 0 -1
    outer loop
      vertex 53.5 48 4
      vertex 51.4882 47.812 4
      vertex 51.5 48 4
    endloop
  endfacet
  facet normal 0 0 -1
    outer loop
      vertex 53.5 48 4
      vertex 51.4529 47.627 4
      vertex 51.4882 47.812 4
    endloop
  endfacet
  facet normal 0 0 -1
    outer loop
      vertex 53.5 48 4
      vertex 51.3947 47.4478 4
      vertex 51.4529 47.627 4
    endloop
  endfacet
  facet normal 0 0 -1
    outer loop
      vertex 53.5 48 4
      vertex 51.3145 47.2774 4
      vertex 51.3947 47.4478 4
    endloop
  endfacet
  facet normal 0 0 -1
    outer loop
      vertex 51.75 44.9689 4
      vertex 51.2135 47.1183 4
      vertex 51.3145 47.2774 4
    endloop
  endfacet
  facet normal 0 0 -1
    outer loop
      vertex 51.75 44.9689 4
      vertex 51.0935 46.9732 4
      vertex 51.2135 47.1183 4
    endloop
  endfacet
  facet normal 0 0 -1
    outer loop
      vertex 51.75 44.9689 4
      vertex 50.9561 46.8442 4
      vertex 51.0935 46.9732 4
    endloop
  endfacet
  facet normal 0 0 -1
    outer loop
      vertex 51.75 44.9689 4
      vertex 50.8037 46.7335 4
      vertex 50.9561 46.8442 4
    endloop
  endfacet
  facet normal 0 0 -1
    outer loop
      vertex 51.75 44.9689 4
      vertex 50.6387 46.6428 4
      vertex 50.8037 46.7335 4
    endloop
  endfacet
  facet normal 0 0 -1
    outer loop
      vertex 51.75 44.9689 4
      vertex 50.4635 46.5734 4
      vertex 50.6387 46.6428 4
    endloop
  endfacet
  facet normal 0 0 -1
    outer loop
      vertex 51.75 44.9689 4
      vertex 50.2811 46.5266 4
      vertex 50.4635 46.5734 4
    endloop
  endfacet
  facet normal 0 0 -1
    outer loop
      vertex 51.75 44.9689 4
      vertex 50.0942 46.503 4
      vertex 50.2811 46.5266 4
    endloop
  endfacet
  facet normal 0 0 -1
    outer loop
      vertex 51.75 44.9689 4
      vertex 49.9058 46.503 4
      vertex 50.0942 46.503 4
    endloop
  endfacet
  facet normal 0 0 -1
    outer loop
      vertex 48.25 44.9689 4
      vertex 49.9058 46.503 4
      vertex 51.75 44.9689 4
    endloop
  endfacet
  facet normal -0 0 -1
    outer loop
      vertex 49.9058 46.503 4
      vertex 48.25 44.9689 4
      vertex 49.7189 46.5266 4
    endloop
  endfacet
  facet normal -0 0 -1
    outer loop
      vertex 49.7189 46.5266 4
      vertex 48.25 44.9689 4
      vertex 49.5365 46.5734 4
    endloop
  endfacet
  facet normal -0 0 -1
    outer loop
      vertex 49.5365 46.5734 4
      vertex 48.25 44.9689 4
      vertex 49.3613 46.6428 4
    endloop
  endfacet
  facet normal 0 0 -1
    outer loop
      vertex 48.5471 47.627 4
      vertex 46.5 48 4
      vertex 48.5118 47.812 4
    endloop
  endfacet
  facet normal 0 0 -1
    outer loop
      vertex 48.6053 47.4478 4
      vertex 46.5 48 4
      vertex 48.5471 47.627 4
    endloop
  endfacet
  facet normal 0 0 -1
    outer loop
      vertex 48.6855 47.2774 4
      vertex 46.5 48 4
      vertex 48.6053 47.4478 4
    endloop
  endfacet
  facet normal 0 0 -1
    outer loop
      vertex 46.5 48 4
      vertex 48.6855 47.2774 4
      vertex 48.25 44.9689 4
    endloop
  endfacet
  facet normal -0 0 -1
    outer loop
      vertex 48.7865 47.1183 4
      vertex 48.25 44.9689 4
      vertex 48.6855 47.2774 4
    endloop
  endfacet
  facet normal -0 0 -1
    outer loop
      vertex 48.9065 46.9732 4
      vertex 48.25 44.9689 4
      vertex 48.7865 47.1183 4
    endloop
  endfacet
  facet normal -0 0 -1
    outer loop
      vertex 49.0439 46.8442 4
      vertex 48.25 44.9689 4
      vertex 48.9065 46.9732 4
    endloop
  endfacet
  facet normal -0 0 -1
    outer loop
      vertex 49.1963 46.7335 4
      vertex 48.25 44.9689 4
      vertex 49.0439 46.8442 4
    endloop
  endfacet
  facet normal -0 0 -1
    outer loop
      vertex 49.3613 46.6428 4
      vertex 48.25 44.9689 4
      vertex 49.1963 46.7335 4
    endloop
  endfacet
  facet normal 0 0 -1
    outer loop
      vertex 51.4529 48.373 4
      vertex 53.5 48 4
      vertex 51.4882 48.188 4
    endloop
  endfacet
  facet normal 0 0 -1
    outer loop
      vertex 51.3947 48.5522 4
      vertex 53.5 48 4
      vertex 51.4529 48.373 4
    endloop
  endfacet
  facet normal 0 0 -1
    outer loop
      vertex 51.3145 48.7226 4
      vertex 53.5 48 4
      vertex 51.3947 48.5522 4
    endloop
  endfacet
  facet normal 0 0 -1
    outer loop
      vertex 53.5 48 4
      vertex 51.3145 48.7226 4
      vertex 51.75 51.0311 4
    endloop
  endfacet
  facet normal 0 0 -1
    outer loop
      vertex 51.2135 48.8817 4
      vertex 51.75 51.0311 4
      vertex 51.3145 48.7226 4
    endloop
  endfacet
  facet normal 0 0 -1
    outer loop
      vertex 51.0935 49.0268 4
      vertex 51.75 51.0311 4
      vertex 51.2135 48.8817 4
    endloop
  endfacet
  facet normal 0 0 -1
    outer loop
      vertex 50.9561 49.1558 4
      vertex 51.75 51.0311 4
      vertex 51.0935 49.0268 4
    endloop
  endfacet
  facet normal 0 0 -1
    outer loop
      vertex 50.8037 49.2665 4
      vertex 51.75 51.0311 4
      vertex 50.9561 49.1558 4
    endloop
  endfacet
  facet normal 0 0 -1
    outer loop
      vertex 50.6387 49.3572 4
      vertex 51.75 51.0311 4
      vertex 50.8037 49.2665 4
    endloop
  endfacet
  facet normal 0 0 -1
    outer loop
      vertex 50.4635 49.4266 4
      vertex 51.75 51.0311 4
      vertex 50.6387 49.3572 4
    endloop
  endfacet
  facet normal 0 0 -1
    outer loop
      vertex 50.2811 49.4734 4
      vertex 51.75 51.0311 4
      vertex 50.4635 49.4266 4
    endloop
  endfacet
  facet normal 0 0 -1
    outer loop
      vertex 50.0942 49.497 4
      vertex 51.75 51.0311 4
      vertex 50.2811 49.4734 4
    endloop
  endfacet
  facet normal 0 0 -1
    outer loop
      vertex 49.9058 49.497 4
      vertex 51.75 51.0311 4
      vertex 50.0942 49.497 4
    endloop
  endfacet
  facet normal 0 0 -1
    outer loop
      vertex 48.25 51.0311 4
      vertex 49.9058 49.497 4
      vertex 49.7189 49.4734 4
    endloop
  endfacet
  facet normal 0 0 -1
    outer loop
      vertex 48.25 51.0311 4
      vertex 49.7189 49.4734 4
      vertex 49.5365 49.4266 4
    endloop
  endfacet
  facet normal 0 0 -1
    outer loop
      vertex 48.25 51.0311 4
      vertex 49.5365 49.4266 4
      vertex 49.3613 49.3572 4
    endloop
  endfacet
  facet normal 0 0 -1
    outer loop
      vertex 48.25 51.0311 4
      vertex 49.3613 49.3572 4
      vertex 49.1963 49.2665 4
    endloop
  endfacet
  facet normal 0 0 -1
    outer loop
      vertex 48.5118 47.812 4
      vertex 46.5 48 4
      vertex 48.5 48 4
    endloop
  endfacet
  facet normal 0 0 -1
    outer loop
      vertex 49.9058 49.497 4
      vertex 48.25 51.0311 4
      vertex 51.75 51.0311 4
    endloop
  endfacet
  facet normal 0 0 -1
    outer loop
      vertex 49.0439 49.1558 4
      vertex 48.25 51.0311 4
      vertex 49.1963 49.2665 4
    endloop
  endfacet
  facet normal 0 0 -1
    outer loop
      vertex 48.9065 49.0268 4
      vertex 48.25 51.0311 4
      vertex 49.0439 49.1558 4
    endloop
  endfacet
  facet normal 0 0 -1
    outer loop
      vertex 48.7865 48.8817 4
      vertex 48.25 51.0311 4
      vertex 48.9065 49.0268 4
    endloop
  endfacet
  facet normal 0 0 -1
    outer loop
      vertex 48.6855 48.7226 4
      vertex 48.25 51.0311 4
      vertex 48.7865 48.8817 4
    endloop
  endfacet
  facet normal 0 0 -1
    outer loop
      vertex 46.5 48 4
      vertex 48.6855 48.7226 4
      vertex 48.6053 48.5522 4
    endloop
  endfacet
  facet normal 0 0 -1
    outer loop
      vertex 46.5 48 4
      vertex 48.6053 48.5522 4
      vertex 48.5471 48.373 4
    endloop
  endfacet
  facet normal 0 0 -1
    outer loop
      vertex 46.5 48 4
      vertex 48.5471 48.373 4
      vertex 48.5118 48.188 4
    endloop
  endfacet
  facet normal 0 0 -1
    outer loop
      vertex 48.5 48 4
      vertex 46.5 48 4
      vertex 48.5118 48.188 4
    endloop
  endfacet
  facet normal -0 0 -1
    outer loop
      vertex 48.6855 48.7226 4
      vertex 46.5 48 4
      vertex 48.25 51.0311 4
    endloop
  endfacet
  facet normal -0.866026 0.499999 0
    outer loop
      vertex 51.75 44.9689 0
      vertex 53.5 48 4
      vertex 53.5 48 0
    endloop
  endfacet
  facet normal -0.866026 0.499999 0
    outer loop
      vertex 53.5 48 4
      vertex 51.75 44.9689 0
      vertex 51.75 44.9689 4
    endloop
  endfacet
  facet normal 0 1 -0
    outer loop
      vertex 51.75 -51.0311 0
      vertex 48.25 -51.0311 4
      vertex 51.75 -51.0311 4
    endloop
  endfacet
  facet normal 0 1 0
    outer loop
      vertex 48.25 -51.0311 4
      vertex 51.75 -51.0311 0
      vertex 48.25 -51.0311 0
    endloop
  endfacet
  facet normal -0.866026 0.499999 0
    outer loop
      vertex 51.75 -51.0311 0
      vertex 53.5 -48 4
      vertex 53.5 -48 0
    endloop
  endfacet
  facet normal -0.866026 0.499999 0
    outer loop
      vertex 53.5 -48 4
      vertex 51.75 -51.0311 0
      vertex 51.75 -51.0311 4
    endloop
  endfacet
  facet normal 0 -1 0
    outer loop
      vertex 48.25 -44.9689 0
      vertex 51.75 -44.9689 4
      vertex 48.25 -44.9689 4
    endloop
  endfacet
  facet normal 0 -1 -0
    outer loop
      vertex 51.75 -44.9689 4
      vertex 48.25 -44.9689 0
      vertex 51.75 -44.9689 0
    endloop
  endfacet
  facet normal -0.866026 -0.499999 0
    outer loop
      vertex 53.5 -48 0
      vertex 51.75 -44.9689 4
      vertex 51.75 -44.9689 0
    endloop
  endfacet
  facet normal -0.866026 -0.499999 0
    outer loop
      vertex 51.75 -44.9689 4
      vertex 53.5 -48 0
      vertex 53.5 -48 4
    endloop
  endfacet
  facet normal 0.866026 -0.499999 0
    outer loop
      vertex 46.5 -48 4
      vertex 48.25 -44.9689 0
      vertex 48.25 -44.9689 4
    endloop
  endfacet
  facet normal 0.866026 -0.499999 0
    outer loop
      vertex 48.25 -44.9689 0
      vertex 46.5 -48 4
      vertex 46.5 -48 0
    endloop
  endfacet
  facet normal 0.866026 0.499999 0
    outer loop
      vertex 48.25 -51.0311 4
      vertex 46.5 -48 0
      vertex 46.5 -48 4
    endloop
  endfacet
  facet normal 0.866026 0.499999 0
    outer loop
      vertex 46.5 -48 0
      vertex 48.25 -51.0311 4
      vertex 48.25 -51.0311 0
    endloop
  endfacet
  facet normal 0 0 -1
    outer loop
      vertex 51.3145 -48.7226 4
      vertex 53.5 -48 4
      vertex 51.75 -51.0311 4
    endloop
  endfacet
  facet normal 0 0 -1
    outer loop
      vertex 51.4882 -47.812 4
      vertex 53.5 -48 4
      vertex 51.5 -48 4
    endloop
  endfacet
  facet normal -0 0 -1
    outer loop
      vertex 53.5 -48 4
      vertex 51.4882 -48.188 4
      vertex 51.5 -48 4
    endloop
  endfacet
  facet normal 0 0 -1
    outer loop
      vertex 53.5 -48 4
      vertex 51.4529 -48.373 4
      vertex 51.4882 -48.188 4
    endloop
  endfacet
  facet normal 0 0 -1
    outer loop
      vertex 53.5 -48 4
      vertex 51.3947 -48.5522 4
      vertex 51.4529 -48.373 4
    endloop
  endfacet
  facet normal 0 0 -1
    outer loop
      vertex 53.5 -48 4
      vertex 51.3145 -48.7226 4
      vertex 51.3947 -48.5522 4
    endloop
  endfacet
  facet normal 0 0 -1
    outer loop
      vertex 51.75 -51.0311 4
      vertex 51.2135 -48.8817 4
      vertex 51.3145 -48.7226 4
    endloop
  endfacet
  facet normal 0 0 -1
    outer loop
      vertex 51.75 -51.0311 4
      vertex 51.0935 -49.0268 4
      vertex 51.2135 -48.8817 4
    endloop
  endfacet
  facet normal 0 0 -1
    outer loop
      vertex 51.75 -51.0311 4
      vertex 50.9561 -49.1558 4
      vertex 51.0935 -49.0268 4
    endloop
  endfacet
  facet normal 0 0 -1
    outer loop
      vertex 51.75 -51.0311 4
      vertex 50.8037 -49.2665 4
      vertex 50.9561 -49.1558 4
    endloop
  endfacet
  facet normal 0 0 -1
    outer loop
      vertex 51.75 -51.0311 4
      vertex 50.6387 -49.3572 4
      vertex 50.8037 -49.2665 4
    endloop
  endfacet
  facet normal 0 0 -1
    outer loop
      vertex 51.75 -51.0311 4
      vertex 50.4635 -49.4266 4
      vertex 50.6387 -49.3572 4
    endloop
  endfacet
  facet normal 0 0 -1
    outer loop
      vertex 51.75 -51.0311 4
      vertex 50.2811 -49.4734 4
      vertex 50.4635 -49.4266 4
    endloop
  endfacet
  facet normal 0 0 -1
    outer loop
      vertex 51.75 -51.0311 4
      vertex 50.0942 -49.497 4
      vertex 50.2811 -49.4734 4
    endloop
  endfacet
  facet normal 0 0 -1
    outer loop
      vertex 51.75 -51.0311 4
      vertex 49.9058 -49.497 4
      vertex 50.0942 -49.497 4
    endloop
  endfacet
  facet normal 0 0 -1
    outer loop
      vertex 48.25 -51.0311 4
      vertex 49.9058 -49.497 4
      vertex 51.75 -51.0311 4
    endloop
  endfacet
  facet normal -0 0 -1
    outer loop
      vertex 49.9058 -49.497 4
      vertex 48.25 -51.0311 4
      vertex 49.7189 -49.4734 4
    endloop
  endfacet
  facet normal -0 0 -1
    outer loop
      vertex 49.7189 -49.4734 4
      vertex 48.25 -51.0311 4
      vertex 49.5365 -49.4266 4
    endloop
  endfacet
  facet normal -0 0 -1
    outer loop
      vertex 49.5365 -49.4266 4
      vertex 48.25 -51.0311 4
      vertex 49.3613 -49.3572 4
    endloop
  endfacet
  facet normal 0 0 -1
    outer loop
      vertex 48.5471 -48.373 4
      vertex 46.5 -48 4
      vertex 48.5118 -48.188 4
    endloop
  endfacet
  facet normal 0 0 -1
    outer loop
      vertex 48.6053 -48.5522 4
      vertex 46.5 -48 4
      vertex 48.5471 -48.373 4
    endloop
  endfacet
  facet normal 0 0 -1
    outer loop
      vertex 48.6855 -48.7226 4
      vertex 46.5 -48 4
      vertex 48.6053 -48.5522 4
    endloop
  endfacet
  facet normal 0 0 -1
    outer loop
      vertex 46.5 -48 4
      vertex 48.6855 -48.7226 4
      vertex 48.25 -51.0311 4
    endloop
  endfacet
  facet normal -0 0 -1
    outer loop
      vertex 48.7865 -48.8817 4
      vertex 48.25 -51.0311 4
      vertex 48.6855 -48.7226 4
    endloop
  endfacet
  facet normal -0 0 -1
    outer loop
      vertex 48.9065 -49.0268 4
      vertex 48.25 -51.0311 4
      vertex 48.7865 -48.8817 4
    endloop
  endfacet
  facet normal -0 0 -1
    outer loop
      vertex 49.0439 -49.1558 4
      vertex 48.25 -51.0311 4
      vertex 48.9065 -49.0268 4
    endloop
  endfacet
  facet normal -0 0 -1
    outer loop
      vertex 49.1963 -49.2665 4
      vertex 48.25 -51.0311 4
      vertex 49.0439 -49.1558 4
    endloop
  endfacet
  facet normal -0 0 -1
    outer loop
      vertex 49.3613 -49.3572 4
      vertex 48.25 -51.0311 4
      vertex 49.1963 -49.2665 4
    endloop
  endfacet
  facet normal 0 0 -1
    outer loop
      vertex 51.4529 -47.627 4
      vertex 53.5 -48 4
      vertex 51.4882 -47.812 4
    endloop
  endfacet
  facet normal 0 0 -1
    outer loop
      vertex 51.3947 -47.4478 4
      vertex 53.5 -48 4
      vertex 51.4529 -47.627 4
    endloop
  endfacet
  facet normal 0 0 -1
    outer loop
      vertex 51.3145 -47.2774 4
      vertex 53.5 -48 4
      vertex 51.3947 -47.4478 4
    endloop
  endfacet
  facet normal 0 0 -1
    outer loop
      vertex 53.5 -48 4
      vertex 51.3145 -47.2774 4
      vertex 51.75 -44.9689 4
    endloop
  endfacet
  facet normal 0 0 -1
    outer loop
      vertex 51.2135 -47.1183 4
      vertex 51.75 -44.9689 4
      vertex 51.3145 -47.2774 4
    endloop
  endfacet
  facet normal 0 0 -1
    outer loop
      vertex 51.0935 -46.9732 4
      vertex 51.75 -44.9689 4
      vertex 51.2135 -47.1183 4
    endloop
  endfacet
  facet normal 0 0 -1
    outer loop
      vertex 50.9561 -46.8442 4
      vertex 51.75 -44.9689 4
      vertex 51.0935 -46.9732 4
    endloop
  endfacet
  facet normal 0 0 -1
    outer loop
      vertex 50.8037 -46.7335 4
      vertex 51.75 -44.9689 4
      vertex 50.9561 -46.8442 4
    endloop
  endfacet
  facet normal 0 0 -1
    outer loop
      vertex 50.6387 -46.6428 4
      vertex 51.75 -44.9689 4
      vertex 50.8037 -46.7335 4
    endloop
  endfacet
  facet normal 0 0 -1
    outer loop
      vertex 50.4635 -46.5734 4
      vertex 51.75 -44.9689 4
      vertex 50.6387 -46.6428 4
    endloop
  endfacet
  facet normal 0 0 -1
    outer loop
      vertex 50.2811 -46.5266 4
      vertex 51.75 -44.9689 4
      vertex 50.4635 -46.5734 4
    endloop
  endfacet
  facet normal 0 0 -1
    outer loop
      vertex 50.0942 -46.503 4
      vertex 51.75 -44.9689 4
      vertex 50.2811 -46.5266 4
    endloop
  endfacet
  facet normal 0 0 -1
    outer loop
      vertex 49.9058 -46.503 4
      vertex 51.75 -44.9689 4
      vertex 50.0942 -46.503 4
    endloop
  endfacet
  facet normal 0 0 -1
    outer loop
      vertex 48.25 -44.9689 4
      vertex 49.9058 -46.503 4
      vertex 49.7189 -46.5266 4
    endloop
  endfacet
  facet normal 0 0 -1
    outer loop
      vertex 48.25 -44.9689 4
      vertex 49.7189 -46.5266 4
      vertex 49.5365 -46.5734 4
    endloop
  endfacet
  facet normal 0 0 -1
    outer loop
      vertex 48.25 -44.9689 4
      vertex 49.5365 -46.5734 4
      vertex 49.3613 -46.6428 4
    endloop
  endfacet
  facet normal 0 0 -1
    outer loop
      vertex 48.25 -44.9689 4
      vertex 49.3613 -46.6428 4
      vertex 49.1963 -46.7335 4
    endloop
  endfacet
  facet normal 0 0 -1
    outer loop
      vertex 48.5118 -48.188 4
      vertex 46.5 -48 4
      vertex 48.5 -48 4
    endloop
  endfacet
  facet normal 0 0 -1
    outer loop
      vertex 49.9058 -46.503 4
      vertex 48.25 -44.9689 4
      vertex 51.75 -44.9689 4
    endloop
  endfacet
  facet normal 0 0 -1
    outer loop
      vertex 49.0439 -46.8442 4
      vertex 48.25 -44.9689 4
      vertex 49.1963 -46.7335 4
    endloop
  endfacet
  facet normal 0 0 -1
    outer loop
      vertex 48.9065 -46.9732 4
      vertex 48.25 -44.9689 4
      vertex 49.0439 -46.8442 4
    endloop
  endfacet
  facet normal 0 0 -1
    outer loop
      vertex 48.7865 -47.1183 4
      vertex 48.25 -44.9689 4
      vertex 48.9065 -46.9732 4
    endloop
  endfacet
  facet normal 0 0 -1
    outer loop
      vertex 48.6855 -47.2774 4
      vertex 48.25 -44.9689 4
      vertex 48.7865 -47.1183 4
    endloop
  endfacet
  facet normal 0 0 -1
    outer loop
      vertex 46.5 -48 4
      vertex 48.6855 -47.2774 4
      vertex 48.6053 -47.4478 4
    endloop
  endfacet
  facet normal 0 0 -1
    outer loop
      vertex 46.5 -48 4
      vertex 48.6053 -47.4478 4
      vertex 48.5471 -47.627 4
    endloop
  endfacet
  facet normal 0 0 -1
    outer loop
      vertex 46.5 -48 4
      vertex 48.5471 -47.627 4
      vertex 48.5118 -47.812 4
    endloop
  endfacet
  facet normal 0 0 -1
    outer loop
      vertex 48.5 -48 4
      vertex 46.5 -48 4
      vertex 48.5118 -47.812 4
    endloop
  endfacet
  facet normal -0 0 -1
    outer loop
      vertex 48.6855 -47.2774 4
      vertex 46.5 -48 4
      vertex 48.25 -44.9689 4
    endloop
  endfacet
  facet normal 0 1 -0
    outer loop
      vertex -48.25 44.9689 0
      vertex -51.75 44.9689 2.29476
      vertex -48.25 44.9689 2.47819
    endloop
  endfacet
  facet normal 0 1 0
    outer loop
      vertex -51.75 44.9689 2.29476
      vertex -48.25 44.9689 0
      vertex -51.75 44.9689 0
    endloop
  endfacet
  facet normal 0 -1 0
    outer loop
      vertex -48.25 51.0311 0
      vertex -51.75 51.0311 2.29476
      vertex -51.75 51.0311 0
    endloop
  endfacet
  facet normal 0 -1 0
    outer loop
      vertex -51.75 51.0311 2.29476
      vertex -48.25 51.0311 0
      vertex -48.25 51.0311 2.47819
    endloop
  endfacet
  facet normal -0.866026 -0.499999 0
    outer loop
      vertex -46.5 48 0
      vertex -48.25 51.0311 2.47819
      vertex -48.25 51.0311 0
    endloop
  endfacet
  facet normal -0.866026 -0.499999 0
    outer loop
      vertex -48.25 51.0311 2.47819
      vertex -46.5 48 0
      vertex -46.5 48 2.5699
    endloop
  endfacet
  facet normal 0.866026 -0.499999 0
    outer loop
      vertex -53.5 48 2.20305
      vertex -51.75 51.0311 0
      vertex -51.75 51.0311 2.29476
    endloop
  endfacet
  facet normal 0.866026 -0.499999 0
    outer loop
      vertex -51.75 51.0311 0
      vertex -53.5 48 2.20305
      vertex -53.5 48 0
    endloop
  endfacet
  facet normal 0.866026 0.499999 -0
    outer loop
      vertex -51.75 44.9689 0
      vertex -53.5 48 2.20305
      vertex -51.75 44.9689 2.29476
    endloop
  endfacet
  facet normal 0.866026 0.499999 0
    outer loop
      vertex -53.5 48 2.20305
      vertex -51.75 44.9689 0
      vertex -53.5 48 0
    endloop
  endfacet
  facet normal -0.866026 0.499999 0
    outer loop
      vertex -48.25 44.9689 2.47819
      vertex -46.5 48 0
      vertex -48.25 44.9689 0
    endloop
  endfacet
  facet normal -0.866026 0.499999 0
    outer loop
      vertex -46.5 48 0
      vertex -48.25 44.9689 2.47819
      vertex -46.5 48 2.5699
    endloop
  endfacet
  facet normal 0 1 -0
    outer loop
      vertex -48.25 -51.0311 0
      vertex -51.75 -51.0311 2.29476
      vertex -48.25 -51.0311 2.47819
    endloop
  endfacet
  facet normal 0 1 0
    outer loop
      vertex -51.75 -51.0311 2.29476
      vertex -48.25 -51.0311 0
      vertex -51.75 -51.0311 0
    endloop
  endfacet
  facet normal -0.866026 0.499999 0
    outer loop
      vertex -48.25 -51.0311 2.47819
      vertex -46.5 -48 0
      vertex -48.25 -51.0311 0
    endloop
  endfacet
  facet normal -0.866026 0.499999 0
    outer loop
      vertex -46.5 -48 0
      vertex -48.25 -51.0311 2.47819
      vertex -46.5 -48 2.5699
    endloop
  endfacet
  facet normal 0 -1 0
    outer loop
      vertex -48.25 -44.9689 0
      vertex -51.75 -44.9689 2.29476
      vertex -51.75 -44.9689 0
    endloop
  endfacet
  facet normal 0 -1 0
    outer loop
      vertex -51.75 -44.9689 2.29476
      vertex -48.25 -44.9689 0
      vertex -48.25 -44.9689 2.47819
    endloop
  endfacet
  facet normal -0.866026 -0.499999 0
    outer loop
      vertex -46.5 -48 0
      vertex -48.25 -44.9689 2.47819
      vertex -48.25 -44.9689 0
    endloop
  endfacet
  facet normal -0.866026 -0.499999 0
    outer loop
      vertex -48.25 -44.9689 2.47819
      vertex -46.5 -48 0
      vertex -46.5 -48 2.5699
    endloop
  endfacet
  facet normal 0.866026 -0.499999 0
    outer loop
      vertex -53.5 -48 2.20305
      vertex -51.75 -44.9689 0
      vertex -51.75 -44.9689 2.29476
    endloop
  endfacet
  facet normal 0.866026 -0.499999 0
    outer loop
      vertex -51.75 -44.9689 0
      vertex -53.5 -48 2.20305
      vertex -53.5 -48 0
    endloop
  endfacet
  facet normal 0.866026 0.499999 -0
    outer loop
      vertex -51.75 -51.0311 0
      vertex -53.5 -48 2.20305
      vertex -51.75 -51.0311 2.29476
    endloop
  endfacet
  facet normal 0.866026 0.499999 0
    outer loop
      vertex -53.5 -48 2.20305
      vertex -51.75 -51.0311 0
      vertex -53.5 -48 0
    endloop
  endfacet
  facet normal -1 0 0
    outer loop
      vertex 77 -54.7004 0
      vertex 77 -55 0
      vertex 77 -55 0.0299093
    endloop
  endfacet
  facet normal -1 0 0
    outer loop
      vertex 77 -55 9.04226
      vertex 77 55 20
      vertex 77 55 9.04226
    endloop
  endfacet
  facet normal -1 -0 0
    outer loop
      vertex 77 55 20
      vertex 77 -55 9.04226
      vertex 77 -55 20
    endloop
  endfacet
  facet normal -1 0 0
    outer loop
      vertex 77 55 0
      vertex 77 54.7004 0
      vertex 77 55 0.0299093
    endloop
  endfacet
  facet normal -0 0 1
    outer loop
      vertex 77 55 20
      vertex 80 -55 20
      vertex 80 55 20
    endloop
  endfacet
  facet normal 0 0 1
    outer loop
      vertex 80 -55 20
      vertex 77 55 20
      vertex 77 -55 20
    endloop
  endfacet
  facet normal 0.514496 0 0.857493
    outer loop
      vertex 80 55 20
      vertex 105 -40 5
      vertex 105 40 5
    endloop
  endfacet
  facet normal 0.514496 0 0.857493
    outer loop
      vertex 105 -40 5
      vertex 80 55 20
      vertex 80 -55 20
    endloop
  endfacet
  facet normal 0.514496 -0.857493 0
    outer loop
      vertex 80 -55 2.09486
      vertex 105 -40 5
      vertex 80 -55 20
    endloop
  endfacet
  facet normal 0.514496 -0.857493 0
    outer loop
      vertex 105 -40 5
      vertex 80 -55 2.09486
      vertex 105 -40 3
    endloop
  endfacet
  facet normal 0.514496 -0.857493 0
    outer loop
      vertex 80 -55 0.187133
      vertex 80 -55 0
      vertex 105 -40 0
    endloop
  endfacet
  facet normal 0.514496 0.857493 0
    outer loop
      vertex 105 40 0
      vertex 80 55 0
      vertex 80 55 0.187133
    endloop
  endfacet
  facet normal 0.514496 0.857493 0
    outer loop
      vertex 80 55 2.09486
      vertex 105 40 5
      vertex 105 40 3
    endloop
  endfacet
  facet normal 0.514496 0.857493 0
    outer loop
      vertex 105 40 5
      vertex 80 55 2.09486
      vertex 80 55 20
    endloop
  endfacet
endsolid OpenSCAD_Model
